<svg width="26" height="26" viewBox="0 0 26 26" fill="none" xmlns="http://www.w3.org/2000/svg">
  <mask id="mask0_330_405" style="mask-type:alpha" maskUnits="userSpaceOnUse" x="0" y="0" width="26" height="26">
    <rect width="26" height="26" fill="#D9D9D9" />
  </mask>
  <g mask="url(#mask0_330_405)">
    <path
      d="M6.49992 23.8332C5.90409 23.8332 5.3942 23.6212 4.97025 23.1973C4.54559 22.7726 4.33325 22.2623 4.33325 21.6665V4.33317C4.33325 3.73734 4.54559 3.22709 4.97025 2.80242C5.3942 2.37848 5.90409 2.1665 6.49992 2.1665H19.4999C20.0958 2.1665 20.606 2.37848 21.0307 2.80242C21.4546 3.22709 21.6666 3.73734 21.6666 4.33317V21.6665C21.6666 22.2623 21.4546 22.7726 21.0307 23.1973C20.606 23.6212 20.0958 23.8332 19.4999 23.8332H6.49992ZM6.49992 21.6665H19.4999V4.33317H17.3333V11.9165L14.6249 10.2915L11.9166 11.9165V4.33317H6.49992V21.6665Z"
      fill="#1D2023" />
  </g>
</svg>