<svg width="26" height="26" viewBox="0 0 26 26" fill="none" xmlns="http://www.w3.org/2000/svg">
  <mask id="mask0_330_4" style="mask-type:alpha" maskUnits="userSpaceOnUse" x="0" y="0" width="26" height="26">
    <rect width="26" height="26" fill="#D9D9D9" />
  </mask>
  <g mask="url(#mask0_330_4)">
    <path
      d="M6.50004 23.8332C5.90421 23.8332 5.39432 23.6212 4.97037 23.1973C4.54571 22.7726 4.33337 22.2623 4.33337 21.6665V4.33317C4.33337 3.73734 4.54571 3.22709 4.97037 2.80242C5.39432 2.37848 5.90421 2.1665 6.50004 2.1665H19.5C20.0959 2.1665 20.6061 2.37848 21.0308 2.80242C21.4547 3.22709 21.6667 3.73734 21.6667 4.33317V21.6665C21.6667 22.2623 21.4547 22.7726 21.0308 23.1973C20.6061 23.6212 20.0959 23.8332 19.5 23.8332H6.50004ZM6.50004 21.6665H19.5V4.33317H17.3334V11.9165L14.625 10.2915L11.9167 11.9165V4.33317H6.50004V21.6665Z"
      fill="#F5CE42" />
  </g>
</svg>