<svg width="28" height="28" viewBox="0 0 28 28" fill="none" xmlns="http://www.w3.org/2000/svg">
  <mask id="mask0_330_402" style="mask-type:alpha" maskUnits="userSpaceOnUse" x="0" y="0" width="28" height="28">
    <rect width="28" height="28" fill="#D9D9D9" />
  </mask>
  <g mask="url(#mask0_330_402)">
    <path
      d="M7.58341 18.6665C8.4973 18.6665 9.38708 18.7684 10.2527 18.9722C11.1176 19.1767 11.9779 19.4832 12.8334 19.8915V8.39984C12.0362 7.93317 11.1904 7.58317 10.2959 7.34984C9.40147 7.1165 8.4973 6.99984 7.58341 6.99984C6.88341 6.99984 6.18847 7.06789 5.49858 7.204C4.80791 7.34012 4.14175 7.54428 3.50008 7.8165V19.3665C4.18064 19.1332 4.85653 18.9582 5.52775 18.8415C6.19819 18.7248 6.88341 18.6665 7.58341 18.6665ZM15.1667 19.8915C16.0223 19.4832 16.8829 19.1767 17.7486 18.9722C18.6135 18.7684 19.5029 18.6665 20.4167 18.6665C21.1167 18.6665 21.8024 18.7248 22.4736 18.8415C23.144 18.9582 23.8195 19.1332 24.5001 19.3665V7.8165C23.8584 7.54428 23.1926 7.34012 22.5027 7.204C21.8121 7.06789 21.1167 6.99984 20.4167 6.99984C19.5029 6.99984 18.5987 7.1165 17.7042 7.34984C16.8098 7.58317 15.964 7.93317 15.1667 8.39984V19.8915ZM14.0001 23.3332C13.0667 22.5943 12.0556 22.0207 10.9667 21.6123C9.87786 21.204 8.75008 20.9998 7.58341 20.9998C6.76675 20.9998 5.96486 21.1068 5.17775 21.3207C4.38986 21.5346 3.63619 21.8359 2.91675 22.2248C2.50841 22.4387 2.11486 22.429 1.73608 22.1957C1.35653 21.9623 1.16675 21.6221 1.16675 21.1748V7.1165C1.16675 6.90261 1.22041 6.69845 1.32775 6.504C1.4343 6.30956 1.59453 6.16373 1.80841 6.0665C2.70286 5.59984 3.63619 5.24984 4.60841 5.0165C5.58064 4.78317 6.5723 4.6665 7.58341 4.6665C8.71119 4.6665 9.81486 4.81234 10.8944 5.104C11.9732 5.39567 13.0084 5.83317 14.0001 6.4165C14.9917 5.83317 16.0274 5.39567 17.1069 5.104C18.1857 4.81234 19.289 4.6665 20.4167 4.6665C21.4279 4.6665 22.4195 4.78317 23.3917 5.0165C24.364 5.24984 25.2973 5.59984 26.1917 6.0665C26.4056 6.16373 26.5662 6.30956 26.6736 6.504C26.7801 6.69845 26.8334 6.90261 26.8334 7.1165V21.1748C26.8334 21.6221 26.644 21.9623 26.2652 22.1957C25.8857 22.429 25.4917 22.4387 25.0834 22.2248C24.364 21.8359 23.6103 21.5346 22.8224 21.3207C22.0353 21.1068 21.2334 20.9998 20.4167 20.9998C19.2501 20.9998 18.1223 21.204 17.0334 21.6123C15.9445 22.0207 14.9334 22.5943 14.0001 23.3332Z"
      fill="#93CBFF" />
  </g>
</svg>