<svg width="40" height="40" viewBox="0 0 40 40" fill="none" xmlns="http://www.w3.org/2000/svg">
<mask id="mask0_287_228" style="mask-type:alpha" maskUnits="userSpaceOnUse" x="0" y="0" width="40" height="40">
<rect width="40" height="40" fill="#D9D9D9"/>
</mask>
<g mask="url(#mask0_287_228)">
<path d="M8.33331 35V7.29163C8.33331 6.62496 8.58331 6.04163 9.08331 5.54163C9.58331 5.04163 10.1666 4.79163 10.8333 4.79163H29.1666C29.8333 4.79163 30.4166 5.04163 30.9166 5.54163C31.4166 6.04163 31.6666 6.62496 31.6666 7.29163V35L20 30L8.33331 35ZM10.8333 31.2083L20 27.3333L29.1666 31.2083V7.29163H10.8333V31.2083Z" fill="#55ABFA"/>
<path d="M10.8333 31.2083L20 27.3333L29.1666 31.2083V7.29163H10.8333V31.2083Z" fill="#55ABFA"/>
<path d="M8.33331 35V7.29163C8.33331 6.62496 8.58331 6.04163 9.08331 5.54163C9.58331 5.04163 10.1666 4.79163 10.8333 4.79163H29.1666C29.8333 4.79163 30.4166 5.04163 30.9166 5.54163C31.4166 6.04163 31.6666 6.62496 31.6666 7.29163V35L20 30L8.33331 35ZM10.8333 31.2083L20 27.3333L29.1666 31.2083V7.29163H10.8333V31.2083Z" fill="#1D2023"/>
</g>
<mask id="mask1_287_228" style="mask-type:alpha" maskUnits="userSpaceOnUse" x="8" y="7" width="24" height="24">
<rect x="8" y="7" width="24" height="24" fill="#D9D9D9"/>
</mask>
<g mask="url(#mask1_287_228)">
<path d="M18 23.4L14 19.4L15.4 18L18 20.6L24.6 14L26 15.4L18 23.4Z" fill="#1D2023"/>
</g>
</svg>
