<svg width="40" height="40" viewBox="0 0 40 40" fill="none" xmlns="http://www.w3.org/2000/svg">
<mask id="mask0_225_296" style="mask-type:alpha" maskUnits="userSpaceOnUse" x="0" y="0" width="40" height="40">
<rect width="40" height="40" fill="#D9D9D9"/>
</mask>
<g mask="url(#mask0_225_296)">
<path d="M20 35.0001L17.5833 32.8334C14.7778 30.3056 12.4583 28.1251 10.625 26.2917C8.79165 24.4584 7.33331 22.8123 6.24998 21.3534C5.16665 19.8956 4.40998 18.5556 3.97998 17.3334C3.54887 16.1112 3.33331 14.8612 3.33331 13.5834C3.33331 10.9723 4.20831 8.79175 5.95831 7.04175C7.70831 5.29175 9.88887 4.41675 12.5 4.41675C13.9444 4.41675 15.3194 4.7223 16.625 5.33341C17.9305 5.94453 19.0555 6.80564 20 7.91675C20.9444 6.80564 22.0694 5.94453 23.375 5.33341C24.6805 4.7223 26.0555 4.41675 27.5 4.41675C30.1111 4.41675 32.2916 5.29175 34.0416 7.04175C35.7916 8.79175 36.6666 10.9723 36.6666 13.5834C36.6666 14.8612 36.4516 16.1112 36.0216 17.3334C35.5905 18.5556 34.8333 19.8956 33.75 21.3534C32.6666 22.8123 31.2083 24.4584 29.375 26.2917C27.5416 28.1251 25.2222 30.3056 22.4166 32.8334L20 35.0001ZM20 30.5001C22.6666 28.1112 24.8611 26.0623 26.5833 24.3534C28.3055 22.6456 29.6666 21.1601 30.6666 19.8967C31.6666 18.6323 32.3611 17.5067 32.75 16.5201C33.1389 15.5345 33.3333 14.5556 33.3333 13.5834C33.3333 11.9167 32.7778 10.5279 31.6666 9.41675C30.5555 8.30564 29.1666 7.75008 27.5 7.75008C26.1944 7.75008 24.9861 8.11786 23.875 8.85341C22.7639 9.59008 22 10.5279 21.5833 11.6667H18.4166C18 10.5279 17.2361 9.59008 16.125 8.85341C15.0139 8.11786 13.8055 7.75008 12.5 7.75008C10.8333 7.75008 9.44442 8.30564 8.33331 9.41675C7.2222 10.5279 6.66665 11.9167 6.66665 13.5834C6.66665 14.5556 6.86109 15.5345 7.24998 16.5201C7.63887 17.5067 8.33331 18.6323 9.33331 19.8967C10.3333 21.1601 11.6944 22.6456 13.4166 24.3534C15.1389 26.0623 17.3333 28.1112 20 30.5001Z" fill="#1D2023"/>
<path d="M20 30.5001C22.6666 28.1112 24.8611 26.0623 26.5833 24.3534C28.3055 22.6456 29.6666 21.1601 30.6666 19.8967C31.6666 18.6323 32.3611 17.5067 32.75 16.5201C33.1389 15.5345 33.3333 14.5556 33.3333 13.5834C33.3333 11.9167 32.7778 10.5279 31.6666 9.41675C30.5555 8.30564 29.1666 7.75008 27.5 7.75008C26.1944 7.75008 24.9861 8.11786 23.875 8.85341C22.7639 9.59008 22 10.5279 21.5833 11.6667H18.4166C18 10.5279 17.2361 9.59008 16.125 8.85341C15.0139 8.11786 13.8055 7.75008 12.5 7.75008C10.8333 7.75008 9.44442 8.30564 8.33331 9.41675C7.2222 10.5279 6.66665 11.9167 6.66665 13.5834C6.66665 14.5556 6.86109 15.5345 7.24998 16.5201C7.63887 17.5067 8.33331 18.6323 9.33331 19.8967C10.3333 21.1601 11.6944 22.6456 13.4166 24.3534C15.1389 26.0623 17.3333 28.1112 20 30.5001Z" fill="white"/>
<path d="M20 35.0001L17.5833 32.8334C14.7778 30.3056 12.4583 28.1251 10.625 26.2917C8.79165 24.4584 7.33331 22.8123 6.24998 21.3534C5.16665 19.8956 4.40998 18.5556 3.97998 17.3334C3.54887 16.1112 3.33331 14.8612 3.33331 13.5834C3.33331 10.9723 4.20831 8.79175 5.95831 7.04175C7.70831 5.29175 9.88887 4.41675 12.5 4.41675C13.9444 4.41675 15.3194 4.7223 16.625 5.33341C17.9305 5.94453 19.0555 6.80564 20 7.91675C20.9444 6.80564 22.0694 5.94453 23.375 5.33341C24.6805 4.7223 26.0555 4.41675 27.5 4.41675C30.1111 4.41675 32.2916 5.29175 34.0416 7.04175C35.7916 8.79175 36.6666 10.9723 36.6666 13.5834C36.6666 14.8612 36.4516 16.1112 36.0216 17.3334C35.5905 18.5556 34.8333 19.8956 33.75 21.3534C32.6666 22.8123 31.2083 24.4584 29.375 26.2917C27.5416 28.1251 25.2222 30.3056 22.4166 32.8334L20 35.0001ZM20 30.5001C22.6666 28.1112 24.8611 26.0623 26.5833 24.3534C28.3055 22.6456 29.6666 21.1601 30.6666 19.8967C31.6666 18.6323 32.3611 17.5067 32.75 16.5201C33.1389 15.5345 33.3333 14.5556 33.3333 13.5834C33.3333 11.9167 32.7778 10.5279 31.6666 9.41675C30.5555 8.30564 29.1666 7.75008 27.5 7.75008C26.1944 7.75008 24.9861 8.11786 23.875 8.85341C22.7639 9.59008 22 10.5279 21.5833 11.6667H18.4166C18 10.5279 17.2361 9.59008 16.125 8.85341C15.0139 8.11786 13.8055 7.75008 12.5 7.75008C10.8333 7.75008 9.44442 8.30564 8.33331 9.41675C7.2222 10.5279 6.66665 11.9167 6.66665 13.5834C6.66665 14.5556 6.86109 15.5345 7.24998 16.5201C7.63887 17.5067 8.33331 18.6323 9.33331 19.8967C10.3333 21.1601 11.6944 22.6456 13.4166 24.3534C15.1389 26.0623 17.3333 28.1112 20 30.5001Z" fill="#1D2023"/>
</g>
</svg>
