<svg width="40" height="40" viewBox="0 0 40 40" fill="none" xmlns="http://www.w3.org/2000/svg">
<mask id="mask0_197_212" style="mask-type:alpha" maskUnits="userSpaceOnUse" x="0" y="0" width="40" height="40">
<rect width="40" height="40" fill="#D9D9D9"/>
</mask>
<g mask="url(#mask0_197_212)">
<path d="M29.2917 36.6668C27.9861 36.6668 26.8681 36.2016 25.9375 35.271C25.0069 34.3404 24.5417 33.2224 24.5417 31.9168C24.5417 31.7224 24.5625 31.4932 24.6042 31.2293C24.6458 30.9654 24.7083 30.7224 24.7917 30.5002L12.1667 23.1668C11.75 23.6391 11.2361 24.021 10.625 24.3127C10.0139 24.6043 9.38889 24.7502 8.75 24.7502C7.44444 24.7502 6.32639 24.2849 5.39583 23.3543C4.46528 22.4238 4 21.3057 4 20.0002C4 18.6668 4.46528 17.5418 5.39583 16.6252C6.32639 15.7085 7.44444 15.2502 8.75 15.2502C9.38889 15.2502 10 15.3752 10.5833 15.6252C11.1667 15.8752 11.6944 16.2363 12.1667 16.7085L24.7917 9.4585C24.7083 9.26405 24.6458 9.04183 24.6042 8.79183C24.5625 8.54183 24.5417 8.30572 24.5417 8.0835C24.5417 6.75016 25.0069 5.62516 25.9375 4.7085C26.8681 3.79183 27.9861 3.3335 29.2917 3.3335C30.625 3.3335 31.75 3.79183 32.6667 4.7085C33.5833 5.62516 34.0417 6.75016 34.0417 8.0835C34.0417 9.38905 33.5833 10.5071 32.6667 11.4377C31.75 12.3682 30.625 12.8335 29.2917 12.8335C28.6528 12.8335 28.0347 12.7293 27.4375 12.521C26.8403 12.3127 26.3333 11.9724 25.9167 11.5002L13.2917 18.5002C13.3472 18.7224 13.3958 18.9793 13.4375 19.271C13.4792 19.5627 13.5 19.8057 13.5 20.0002C13.5 20.1946 13.4792 20.4029 13.4375 20.6252C13.3958 20.8474 13.3472 21.0696 13.2917 21.2918L25.9167 28.4585C26.3333 28.0696 26.8194 27.7571 27.375 27.521C27.9306 27.2849 28.5694 27.1668 29.2917 27.1668C30.625 27.1668 31.75 27.6252 32.6667 28.5418C33.5833 29.4585 34.0417 30.5835 34.0417 31.9168C34.0417 33.2224 33.5833 34.3404 32.6667 35.271C31.75 36.2016 30.625 36.6668 29.2917 36.6668ZM29.2917 10.3335C29.9306 10.3335 30.4653 10.1182 30.8958 9.68766C31.3264 9.25711 31.5417 8.72238 31.5417 8.0835C31.5417 7.44461 31.3264 6.90988 30.8958 6.47933C30.4653 6.04877 29.9306 5.8335 29.2917 5.8335C28.6528 5.8335 28.1181 6.04877 27.6875 6.47933C27.2569 6.90988 27.0417 7.44461 27.0417 8.0835C27.0417 8.72238 27.2569 9.25711 27.6875 9.68766C28.1181 10.1182 28.6528 10.3335 29.2917 10.3335ZM8.75 22.2502C9.38889 22.2502 9.92361 22.0349 10.3542 21.6043C10.7847 21.1738 11 20.6391 11 20.0002C11 19.3613 10.7847 18.8266 10.3542 18.396C9.92361 17.9654 9.38889 17.7502 8.75 17.7502C8.11111 17.7502 7.57639 17.9654 7.14583 18.396C6.71528 18.8266 6.5 19.3613 6.5 20.0002C6.5 20.6391 6.71528 21.1738 7.14583 21.6043C7.57639 22.0349 8.11111 22.2502 8.75 22.2502ZM29.2917 34.1668C29.9306 34.1668 30.4653 33.9515 30.8958 33.521C31.3264 33.0904 31.5417 32.5557 31.5417 31.9168C31.5417 31.2779 31.3264 30.7432 30.8958 30.3127C30.4653 29.8821 29.9306 29.6668 29.2917 29.6668C28.6528 29.6668 28.1181 29.8821 27.6875 30.3127C27.2569 30.7432 27.0417 31.2779 27.0417 31.9168C27.0417 32.5557 27.2569 33.0904 27.6875 33.521C28.1181 33.9515 28.6528 34.1668 29.2917 34.1668Z" fill="white"/>
<path d="M29.2917 34.1668C29.9306 34.1668 30.4653 33.9515 30.8958 33.521C31.3264 33.0904 31.5417 32.5557 31.5417 31.9168C31.5417 31.2779 31.3264 30.7432 30.8958 30.3127C30.4653 29.8821 29.9306 29.6668 29.2917 29.6668C28.6528 29.6668 28.1181 29.8821 27.6875 30.3127C27.2569 30.7432 27.0417 31.2779 27.0417 31.9168C27.0417 32.5557 27.2569 33.0904 27.6875 33.521C28.1181 33.9515 28.6528 34.1668 29.2917 34.1668Z" fill="white"/>
<path d="M8.75 22.2502C9.38889 22.2502 9.92361 22.0349 10.3542 21.6043C10.7847 21.1738 11 20.6391 11 20.0002C11 19.3613 10.7847 18.8266 10.3542 18.396C9.92361 17.9654 9.38889 17.7502 8.75 17.7502C8.11111 17.7502 7.57639 17.9654 7.14583 18.396C6.71528 18.8266 6.5 19.3613 6.5 20.0002C6.5 20.6391 6.71528 21.1738 7.14583 21.6043C7.57639 22.0349 8.11111 22.2502 8.75 22.2502Z" fill="white"/>
<path d="M29.2917 10.3335C29.9306 10.3335 30.4653 10.1182 30.8958 9.68766C31.3264 9.25711 31.5417 8.72238 31.5417 8.0835C31.5417 7.44461 31.3264 6.90988 30.8958 6.47933C30.4653 6.04877 29.9306 5.8335 29.2917 5.8335C28.6528 5.8335 28.1181 6.04877 27.6875 6.47933C27.2569 6.90988 27.0417 7.44461 27.0417 8.0835C27.0417 8.72238 27.2569 9.25711 27.6875 9.68766C28.1181 10.1182 28.6528 10.3335 29.2917 10.3335Z" fill="white"/>
<path d="M29.2917 36.6668C27.9861 36.6668 26.8681 36.2016 25.9375 35.271C25.0069 34.3404 24.5417 33.2224 24.5417 31.9168C24.5417 31.7224 24.5625 31.4932 24.6042 31.2293C24.6458 30.9654 24.7083 30.7224 24.7917 30.5002L12.1667 23.1668C11.75 23.6391 11.2361 24.021 10.625 24.3127C10.0139 24.6043 9.38889 24.7502 8.75 24.7502C7.44444 24.7502 6.32639 24.2849 5.39583 23.3543C4.46528 22.4238 4 21.3057 4 20.0002C4 18.6668 4.46528 17.5418 5.39583 16.6252C6.32639 15.7085 7.44444 15.2502 8.75 15.2502C9.38889 15.2502 10 15.3752 10.5833 15.6252C11.1667 15.8752 11.6944 16.2363 12.1667 16.7085L24.7917 9.4585C24.7083 9.26405 24.6458 9.04183 24.6042 8.79183C24.5625 8.54183 24.5417 8.30572 24.5417 8.0835C24.5417 6.75016 25.0069 5.62516 25.9375 4.7085C26.8681 3.79183 27.9861 3.3335 29.2917 3.3335C30.625 3.3335 31.75 3.79183 32.6667 4.7085C33.5833 5.62516 34.0417 6.75016 34.0417 8.0835C34.0417 9.38905 33.5833 10.5071 32.6667 11.4377C31.75 12.3682 30.625 12.8335 29.2917 12.8335C28.6528 12.8335 28.0347 12.7293 27.4375 12.521C26.8403 12.3127 26.3333 11.9724 25.9167 11.5002L13.2917 18.5002C13.3472 18.7224 13.3958 18.9793 13.4375 19.271C13.4792 19.5627 13.5 19.8057 13.5 20.0002C13.5 20.1946 13.4792 20.4029 13.4375 20.6252C13.3958 20.8474 13.3472 21.0696 13.2917 21.2918L25.9167 28.4585C26.3333 28.0696 26.8194 27.7571 27.375 27.521C27.9306 27.2849 28.5694 27.1668 29.2917 27.1668C30.625 27.1668 31.75 27.6252 32.6667 28.5418C33.5833 29.4585 34.0417 30.5835 34.0417 31.9168C34.0417 33.2224 33.5833 34.3404 32.6667 35.271C31.75 36.2016 30.625 36.6668 29.2917 36.6668ZM29.2917 10.3335C29.9306 10.3335 30.4653 10.1182 30.8958 9.68766C31.3264 9.25711 31.5417 8.72238 31.5417 8.0835C31.5417 7.44461 31.3264 6.90988 30.8958 6.47933C30.4653 6.04877 29.9306 5.8335 29.2917 5.8335C28.6528 5.8335 28.1181 6.04877 27.6875 6.47933C27.2569 6.90988 27.0417 7.44461 27.0417 8.0835C27.0417 8.72238 27.2569 9.25711 27.6875 9.68766C28.1181 10.1182 28.6528 10.3335 29.2917 10.3335ZM8.75 22.2502C9.38889 22.2502 9.92361 22.0349 10.3542 21.6043C10.7847 21.1738 11 20.6391 11 20.0002C11 19.3613 10.7847 18.8266 10.3542 18.396C9.92361 17.9654 9.38889 17.7502 8.75 17.7502C8.11111 17.7502 7.57639 17.9654 7.14583 18.396C6.71528 18.8266 6.5 19.3613 6.5 20.0002C6.5 20.6391 6.71528 21.1738 7.14583 21.6043C7.57639 22.0349 8.11111 22.2502 8.75 22.2502ZM29.2917 34.1668C29.9306 34.1668 30.4653 33.9515 30.8958 33.521C31.3264 33.0904 31.5417 32.5557 31.5417 31.9168C31.5417 31.2779 31.3264 30.7432 30.8958 30.3127C30.4653 29.8821 29.9306 29.6668 29.2917 29.6668C28.6528 29.6668 28.1181 29.8821 27.6875 30.3127C27.2569 30.7432 27.0417 31.2779 27.0417 31.9168C27.0417 32.5557 27.2569 33.0904 27.6875 33.521C28.1181 33.9515 28.6528 34.1668 29.2917 34.1668Z" fill="#1D2023"/>
</g>
</svg>
