<svg width="2014" height="1445" viewBox="0 0 2014 1445" fill="none" xmlns="http://www.w3.org/2000/svg">
  <path d="M6.82312 200.298H919.571L717.691 1179.42H6.82312V200.298Z" fill="white" stroke="black"
    stroke-width="13.6462" />
  <mask id="mask0_142_32" style="mask-type:alpha" maskUnits="userSpaceOnUse" x="0" y="193" width="928" height="994">
    <path d="M0 193.475L927.944 193.475L723.251 1186.24H0V193.475Z" fill="#D9D9D9" />
  </mask>
  <g mask="url(#mask0_142_32)">
    <path fill-rule="evenodd" clip-rule="evenodd"
      d="M555.037 368.253L593.674 431.949C594.115 432.676 594.222 433.473 594.071 434.205C597.628 434.513 601.122 434.841 604.545 435.191C604.896 432.331 604.34 429.299 602.646 426.507L564.009 362.811C558.698 354.055 545.993 354.055 540.682 362.811L502.046 426.507C501.291 427.751 500.762 429.043 500.438 430.346C504.268 430.377 508.094 430.42 511.911 430.476L549.654 368.253C550.88 366.232 553.812 366.232 555.037 368.253ZM371.315 433.093C371.062 432.61 370.776 432.133 370.456 431.666L328.381 370.187C322.598 361.736 309.912 362.434 305.09 371.467L270.007 437.188C267.919 441.1 267.95 445.338 269.466 448.907C272.463 447.468 275.685 446.121 279.157 444.875C278.79 444.043 278.774 443.047 279.264 442.129L314.347 376.409C315.459 374.324 318.387 374.163 319.722 376.113L359.148 433.722C363.061 433.508 367.122 433.298 371.315 433.093ZM562.597 733.026C563.302 729.712 562.787 726.087 560.69 722.842L527.789 671.923C522.231 663.322 509.532 663.683 504.472 672.586L488.891 700L473.56 674.203C468.328 665.4 455.624 665.286 450.234 673.993L431.985 703.474L422.661 679.219C418.987 669.661 406.484 667.408 399.705 675.083L378.651 698.919L375.778 673.99C374.605 663.817 363.06 658.515 354.58 664.256L325.304 684.072C327.625 686.782 330.108 689.336 332.706 691.733L360.462 672.945C362.419 671.62 365.083 672.844 365.354 675.192L369.308 709.497L367.103 711.993C371.387 713.339 375.843 714.394 380.528 715.207L380.267 712.94L407.569 682.03C409.134 680.258 412.019 680.778 412.867 682.984L425.051 714.678L423.296 717.513C427.081 717.445 431.005 717.337 435.082 717.199C435.808 717.175 436.524 717.15 437.232 717.123L436.713 715.773L459.157 679.515C460.4 677.506 463.332 677.533 464.539 679.564L482.924 710.499L481.405 713.171C485.907 712.501 490.485 711.752 495.382 710.922L495.061 710.381L513.595 677.771C514.762 675.716 517.693 675.633 518.975 677.618L537.526 706.327C550.523 708.182 559.924 715.848 562.597 733.026ZM324.686 597.077L346.096 618.836C353.278 626.135 365.642 623.213 368.797 613.471L376.799 588.761L394.24 611.344C400.499 619.449 413.124 618.024 417.419 608.729L429.591 582.389L446.873 606.589C452.824 614.922 465.493 613.971 470.134 604.843L483.255 579.034L501.789 606.973C507.449 615.507 520.144 614.993 525.096 606.03L540.138 578.805L559.445 608.003C565.094 616.545 577.789 616.05 582.754 607.094L610.954 556.233C606.098 558.966 601.009 560.95 595.554 562.368L573.577 602.006C572.431 604.073 569.502 604.187 568.198 602.216L545.865 568.441L547.602 565.296C543.37 565.161 538.946 564.99 534.31 564.811C533.152 564.766 531.98 564.721 530.795 564.676L533.607 568.928L515.912 600.955C514.769 603.023 511.839 603.142 510.533 601.173L488.718 568.288L491.012 563.777C485.174 563.76 479.223 563.795 473.212 563.894L476.591 568.988L460.78 600.088C459.709 602.194 456.786 602.414 455.412 600.491L434.657 571.427L437.493 565.289C431.084 565.7 424.722 566.205 418.47 566.816L422.573 572.562L407.894 604.327C406.903 606.472 403.989 606.801 402.545 604.931L380.716 576.665L382.24 571.96C376.785 573.035 371.558 574.237 366.618 575.577L369.028 578.698L358.814 610.238C358.086 612.486 355.233 613.161 353.575 611.476L332.803 590.365C329.843 592.45 327.135 594.683 324.686 597.077Z"
      fill="black" />
    <path
      d="M611.737 435.972C523.409 425.819 381.092 431.462 324.926 435.972C255.38 441.556 239.596 468.542 227.46 497.903C199.974 564.402 230.652 657.477 202.153 753.749C182.579 819.873 169.858 858.497 130.577 915.176C112.532 941.211 96.4502 951.311 78.7984 977.614C67.5565 994.366 69.7922 1013.18 83.8747 1025.84C99.105 1039.53 118.827 1029.9 136.161 1021.78C152.893 1013.94 187.474 983.722 212.813 952.233C252.855 902.472 271.698 831.416 280.836 803.497C289.96 775.616 299.011 778.614 311.243 782.667L311.294 782.684C322.879 786.522 384.392 800.451 406.221 803.497C428.049 806.543 501.074 812.634 541.758 791.314C561.942 780.736 565.617 765.424 563.079 736.997C560.541 708.57 541.758 702.986 517.9 707.047C484.044 712.809 469.404 716.042 435.082 717.199C389.902 718.722 363.445 716.644 338.124 696.387C320.357 682.173 306.143 661.36 308.174 633.948C309.843 611.412 321.281 595.945 341.17 585.215C379.75 564.402 465.068 562.337 523.409 564.402C580.772 566.433 607.939 570.09 635.088 533.945C645.11 520.602 650.135 511.396 652.348 494.857C654.389 479.604 654.036 466.895 647.345 455.769C639.146 442.134 627.544 437.788 611.737 435.972Z"
      stroke="black" stroke-width="13.6411" />
    <ellipse cx="376.704" cy="516.177" rx="11.6755" ry="14.2137" transform="rotate(-5.48187 376.704 516.177)"
      fill="#1E1E1E" />
    <ellipse cx="543.76" cy="492.321" rx="9.95724" ry="12.3675" transform="rotate(-8.53079 543.76 492.321)"
      fill="#1E1E1E" />
    <path d="M1006.41 616.406V614.271L767.22 620.562L1006.41 616.406Z" fill="#040000" />
    <path d="M1006.41 592.813V585.312L682.583 610.306L1006.41 592.813Z" fill="#040000" />
    <path d="M1006.41 562.612V558.627L693.2 596.002L1006.41 562.612Z" fill="#040000" />
    <path d="M1006.41 548.908V545.664L704.208 588.138L1006.41 548.908Z" fill="#040000" />
    <path d="M1006.41 520.369V518.253L784.331 559.676L1006.41 520.369Z" fill="#040000" />
    <path d="M1006.41 508.316V502.979L712.125 565.837L1006.41 508.316Z" fill="#040000" />
    <path d="M1006.41 477.789V473.777L720.016 548.602L1006.41 477.789Z" fill="#040000" />
    <path d="M1006.41 448.821V445.732L761.474 521.184L1006.41 448.821Z" fill="#040000" />
    <path d="M1006.41 434.882V430.53L770.075 509.757L1006.41 434.882Z" fill="#040000" />
    <path d="M1006.41 418.734V414.832L676.856 532.959L1006.41 418.734Z" fill="#040000" />
    <path d="M1006.41 389.973V382.664L738.071 494.54L1006.41 389.973Z" fill="#040000" />
    <path d="M1006.41 371.502V367.429L690.754 505.619L1006.41 371.502Z" fill="#040000" />
    <path d="M1006.41 358.669V348.127L676.85 504.382L1006.41 358.669Z" fill="#040000" />
    <path d="M1006.41 337.281V334.272L748.103 461.687L1006.41 337.281Z" fill="#040000" />
    <path d="M1006.41 302.315V298.403L645.719 497.448L1006.41 302.315Z" fill="#040000" />
    <path d="M1006.41 285.738V276.654L724.002 444.543L1006.41 285.738Z" fill="#040000" />
    <path d="M1006.41 266.054V262.536L739.914 425.923L1006.41 266.054Z" fill="#040000" />
    <path d="M1006.41 231.947V222.971L729.962 412.101L1006.41 231.947Z" fill="#040000" />
    <path d="M1006.41 211.367V197.224L666.092 444.733L1006.41 211.367Z" fill="#040000" />
    <path d="M1006.41 165.839V161.169L703.458 398.101L1006.41 165.839Z" fill="#040000" />
    <path d="M1006.41 145.734V132.886L615.559 457.732L1006.41 145.734Z" fill="#040000" />
    <path d="M1006.41 92.854V82.583L675.624 385.63L1006.41 92.854Z" fill="#040000" />
    <path d="M1000.87 63.8352L670.02 380.244L1006.41 69.4311V63.8352H1000.87Z" fill="#040000" />
    <path d="M989.999 63.8352H972.922L597.823 440.194L989.999 63.8352Z" fill="#040000" />
    <path d="M938.748 63.8352H925.349L612.43 406.844L938.748 63.8352Z" fill="#040000" />
    <path d="M908.771 63.8352H903.371L614.167 393.391L908.771 63.8352Z" fill="#040000" />
    <path d="M863.545 63.8352H854.366L572.962 420.297L863.545 63.8352Z" fill="#040000" />
    <path d="M821.725 63.8352H811.63L596.408 366.628L821.725 63.8352Z" fill="#040000" />
    <path d="M785.22 63.8352H771.72L583.78 358.892L785.22 63.8352Z" fill="#040000" />
    <path d="M742.253 63.8352H736.743L575.603 341.281L742.253 63.8352Z" fill="#040000" />
    <path d="M723.294 63.8352H714.379L567.389 337.126L723.294 63.8352Z" fill="#040000" />
    <path d="M671.336 63.8352H666.032L555.625 306.81L671.336 63.8352Z" fill="#040000" />
    <path d="M656.419 63.8352H650.519L548.249 303.861L656.419 63.8352Z" fill="#040000" />
    <path d="M639.178 63.8352H630.656L509.034 374.265L639.178 63.8352Z" fill="#040000" />
    <path d="M618.705 63.8352H614.732L505.757 361.113L618.705 63.8352Z" fill="#040000" />
    <path d="M571.183 63.8352H568.167L482.066 365.996L571.183 63.8352Z" fill="#040000" />
    <path d="M541.714 63.8352H534.07L483.505 296.576L541.714 63.8352Z" fill="#040000" />
    <path d="M525.833 63.8352H523.029L464.292 350.483L525.833 63.8352Z" fill="#040000" />
    <path d="M513.263 63.8352H508.926L455.861 360.493L513.263 63.8352Z" fill="#040000" />
    <path d="M499.819 63.8352H495.895L464.266 270.248L499.819 63.8352Z" fill="#040000" />
    <path d="M472.314 63.8352H468.823L436.918 357.979L472.314 63.8352Z" fill="#040000" />
    <path d="M457.52 63.8352H455.481L439.295 256.102L457.52 63.8352Z" fill="#040000" />
    <path d="M440.039 63.8352L422.324 368.164L442.839 63.8352H440.039Z" fill="#040000" />
    <path d="M408.146 63.8352L408.975 367.725L416.801 63.8352H408.146Z" fill="#040000" />
    <path d="M385.624 63.8352H379.353L390.445 255.073L385.624 63.8352Z" fill="#040000" />
    <path d="M338.949 63.8352L369.955 313.063L344.024 63.8352H338.949Z" fill="#040000" />
    <path d="M310.019 63.8352H307.647L348.266 293.026L310.019 63.8352Z" fill="#040000" />
    <path d="M299.701 63.8352H291.397L355.826 372.011L299.701 63.8352Z" fill="#040000" />
    <path d="M283.663 63.8352H280.689L330.583 284.604L283.663 63.8352Z" fill="#040000" />
    <path d="M253.191 63.8352H250.203L310.076 277.48L253.191 63.8352Z" fill="#040000" />
    <path d="M222.822 63.8352H218.077L299.305 303.808L222.822 63.8352Z" fill="#040000" />
    <path d="M209.033 63.8352H201.077L295.131 316.932L209.033 63.8352Z" fill="#040000" />
    <path d="M178.767 63.8352H168.299L288.544 343.166L178.767 63.8352Z" fill="#040000" />
    <path d="M161.963 63.8352H152.762L267.753 314.506L161.963 63.8352Z" fill="#040000" />
    <path d="M125.888 63.8352H117.078L246.129 311.178L125.888 63.8352Z" fill="#040000" />
    <path d="M103.497 63.8352H99.7383L275.181 385.808L103.497 63.8352Z" fill="#040000" />
    <path d="M71.0529 63.8352H63.0972L251.982 371.878L71.0529 63.8352Z" fill="#040000" />
    <path d="M15.1987 63.8352H3.93652L233.369 382.576L15.1987 63.8352Z" fill="#040000" />
    <path d="M-32.7151 63.8352H-37.1523L185 345.469L-32.7151 63.8352Z" fill="#040000" />
    <path d="M-51.1299 63.8352H-62.4761L200.064 377.203L-51.1299 63.8352Z" fill="#040000" />
    <path d="M-99.5319 63.8352H-109.881L226.338 429.828L-99.5319 63.8352Z" fill="#040000" />
    <path d="M-120.635 63.8352H-134.097L189.947 399.727L-120.635 63.8352Z" fill="#040000" />
    <path d="M-174.22 63.8352H-192.921L178.081 410.149L-174.22 63.8352Z" fill="#040000" />
    <path d="M-194.459 77.175V85.2779L137.864 384.129L-194.459 77.175Z" fill="#040000" />
    <path d="M-194.459 123.88V132.41L171.468 433.077L-194.459 123.88Z" fill="#040000" />
    <path d="M-194.459 141.837V156.873L112.117 394.024L-194.459 141.837Z" fill="#040000" />
    <path d="M-194.459 191.887V203.104L109.183 415.456L-194.459 191.887Z" fill="#040000" />
    <path d="M-194.459 236.271V241.894L177.708 480.427L-194.459 236.271Z" fill="#040000" />
    <path d="M-194.459 251.57V261.789L124.232 454.021L-194.459 251.57Z" fill="#040000" />
    <path d="M-194.459 289.377V296.993L126.253 472.269L-194.459 289.377Z" fill="#040000" />
    <path d="M-194.459 326.438V334.031L97.0761 475.042L-194.459 326.438Z" fill="#040000" />
    <path d="M-194.459 345.218V353.293L146.654 507.877L-194.459 345.218Z" fill="#040000" />
    <path d="M-194.459 381.996V385.065L107.528 506.713L-194.459 381.996Z" fill="#040000" />
    <path d="M-194.459 393.14V402.415L104.818 512.765L-194.459 393.14Z" fill="#040000" />
    <path d="M-194.459 423.607V432.041L122.064 533.594L-194.459 423.607Z" fill="#040000" />
    <path d="M-194.459 453.064V460.721L140.67 552.652L-194.459 453.064Z" fill="#040000" />
    <path d="M-194.459 481.458V488.836L55.7361 544.868L-194.459 481.458Z" fill="#040000" />
    <path d="M-194.459 496.479V501.571L77.1777 557.578L-194.459 496.479Z" fill="#040000" />
    <path d="M-194.459 524.404V528.291L97.6684 576.025L-194.459 524.404Z" fill="#040000" />
    <path d="M-194.459 550.206V554.211L119.288 592.047L-194.459 550.206Z" fill="#040000" />
    <path d="M-194.459 562.604V568.421L58.7923 592.06L-194.459 562.604Z" fill="#040000" />
    <path d="M-194.459 590.354V593.518L105.306 610.165L-194.459 590.354Z" fill="#040000" />
    <path d="M-194.459 602.002V608.155L20.9449 613.462L-194.459 602.002Z" fill="#040000" />
    <path d="M-194.459 616.197V620.2L128.741 623.715L-194.459 616.197Z" fill="#040000" />
    <path d="M-194.459 641.899V644.963L92.7789 636.263L-194.459 641.899Z" fill="#040000" />
    <path d="M-194.459 654.724V660.368L21.127 647.098L-194.459 654.724Z" fill="#040000" />
    <path d="M-194.459 667.904V675.495L93.5835 650.948L-194.459 667.904Z" fill="#040000" />
    <path d="M-194.459 699.793V702.566L47.5943 671.858L-194.459 699.793Z" fill="#040000" />
    <path d="M-194.459 713.276V717.836L48.8592 680.255L-194.459 713.276Z" fill="#040000" />
    <path d="M-194.459 726.018V729.998L109.255 677.647L-194.459 726.018Z" fill="#040000" />
    <path d="M-194.459 769.403V773.027L55.66 711.743L-194.459 769.403Z" fill="#040000" />
    <path d="M-194.459 783.697V791.06L127.506 702.152L-194.459 783.697Z" fill="#040000" />
    <path d="M-194.459 814.05V818.06L74.4637 732.028L-194.459 814.05Z" fill="#040000" />
    <path d="M-194.459 829.501V836.419L122.687 724.932L-194.459 829.501Z" fill="#040000" />
    <path d="M-194.459 844.389V849.157L136.154 726.556L-194.459 844.389Z" fill="#040000" />
    <path d="M-194.459 878.537V883.5L130.941 744.139L-194.459 878.537Z" fill="#040000" />
    <path d="M-194.459 896.226V900.022L79.9156 774.889L-194.459 896.226Z" fill="#040000" />
    <path d="M-194.459 924.22V932.898L108.108 777.315L-194.459 924.22Z" fill="#040000" />
    <path d="M-194.459 942.112V951.661L91.2319 795.353L-194.459 942.112Z" fill="#040000" />
    <path d="M-194.459 977.61V984.391L119.846 796.445L-194.459 977.61Z" fill="#040000" />
    <path d="M-194.459 993.723V1005.33L93.9618 821.248L-194.459 993.723Z" fill="#040000" />
    <path d="M-194.459 1030.69V1039.8L151.768 800.66L-194.459 1030.69Z" fill="#040000" />
    <path d="M-194.459 1071.55V1084.66L189.065 790.869L-194.459 1071.55Z" fill="#040000" />
    <path d="M-194.459 1113.39V1128.42L151.742 836.926L-194.459 1113.39Z" fill="#040000" />
    <path d="M-194.459 1137.89V1154.72L130.8 865.722L-194.459 1137.89Z" fill="#040000" />
    <path d="M-194.459 1192.86V1193.06H-182.658L185.52 837.787L-194.459 1192.86Z" fill="#040000" />
    <path d="M-163.828 1193.06H-151.629L150.447 884.414L-163.828 1193.06Z" fill="#040000" />
    <path d="M-136.361 1193.06H-127.711L164.847 881.511L-136.361 1193.06Z" fill="#040000" />
    <path d="M-86.96 1193.06H-77.0928L155.365 918.426L-86.96 1193.06Z" fill="#040000" />
    <path d="M-65.5845 1193.06H-56.3658L221.017 852.105L-65.5845 1193.06Z" fill="#040000" />
    <path d="M-42.9478 1193.06H-31.8577L169.946 929.051L-42.9478 1193.06Z" fill="#040000" />
    <path d="M-21.0791 1193.06H-11.33L239.592 850.984L-21.0791 1193.06Z" fill="#040000" />
    <path d="M18.1255 1193.06H30.1622L237.867 877.062L18.1255 1193.06Z" fill="#040000" />
    <path d="M41.3301 1193.06H48.4592L238.329 890.607L41.3301 1193.06Z" fill="#040000" />
    <path d="M75.6538 1193.06H87.9807L274.264 857.892L75.6538 1193.06Z" fill="#040000" />
    <path d="M114.269 1193.06H119.721L238.861 954.97L114.269 1193.06Z" fill="#040000" />
    <path d="M147.12 1193.06H154.071L264.555 941.129L147.12 1193.06Z" fill="#040000" />
    <path d="M179.19 1193.06H186.612L301.051 894.035L179.19 1193.06Z" fill="#040000" />
    <path d="M214.377 1193.06H220.768L319.369 888.002L214.377 1193.06Z" fill="#040000" />
    <path d="M242.131 1193.06H248.928L328.197 902.168L242.131 1193.06Z" fill="#040000" />
    <path d="M302.604 1193.06H305.368L355.521 907.771L302.604 1193.06Z" fill="#040000" />
    <path d="M314.322 1193.06H320.08L363.665 897.553L314.322 1193.06Z" fill="#040000" />
    <path d="M332.405 1193.06L368.317 909.551L328.266 1193.06H332.405Z" fill="#040000" />
    <path d="M346.74 1193.06L367.922 977.696L342.167 1193.06H346.74Z" fill="#040000" />
    <path d="M371.119 1193.06H376.004L390.381 900.083L371.119 1193.06Z" fill="#040000" />
    <path d="M391.958 1193.06L395.158 1001.97L387.289 1193.06H391.958Z" fill="#040000" />
    <path d="M428.127 1193.06H434.792L419.26 922.797L428.127 1193.06Z" fill="#040000" />
    <path d="M458.308 1193.06H464.841L431.541 888.075L458.308 1193.06Z" fill="#040000" />
    <path d="M470.667 1193.06H478.542L438.824 898.72L470.667 1193.06Z" fill="#040000" />
    <path d="M485.324 1193.06H490.065L448.227 920.374L485.324 1193.06Z" fill="#040000" />
    <path d="M514.722 1193.06H522.202L472.508 962.423L514.722 1193.06Z" fill="#040000" />
    <path d="M545.999 1193.06H551.389L495.086 980.995L545.999 1193.06Z" fill="#040000" />
    <path d="M561.077 1193.06H568.178L476.806 880.537L561.077 1193.06Z" fill="#040000" />
    <path d="M609.063 1193.06H613.819L526.85 960.617L609.063 1193.06Z" fill="#040000" />
    <path d="M623.097 1193.06H628.803L509.619 894.482L623.097 1193.06Z" fill="#040000" />
    <path d="M637.47 1193.06H646.352L524.94 913.167L637.47 1193.06Z" fill="#040000" />
    <path d="M703.271 1193.06H711.927L584.334 962.355L703.271 1193.06Z" fill="#040000" />
    <path d="M720.661 1193.06H727.155L591.917 958.677L720.661 1193.06Z" fill="#040000" />
    <path d="M754.465 1193.06H766.662L595.8 930.76L754.465 1193.06Z" fill="#040000" />
    <path d="M774.699 1193.06H784.5L565.149 869.009L774.699 1193.06Z" fill="#040000" />
    <path d="M814.551 1193.06H821.223L596.795 890.018L814.551 1193.06Z" fill="#040000" />
    <path d="M861.067 1193.06H866.05L595.879 862.775L861.067 1193.06Z" fill="#040000" />
    <path d="M906.632 1193.06H919.169L623.569 870.831L906.632 1193.06Z" fill="#040000" />
    <path d="M932.615 1193.06H941.83L589.707 823.729L932.615 1193.06Z" fill="#040000" />
    <path d="M960.879 1193.06H968.203L668.446 893.769L960.879 1193.06Z" fill="#040000" />
    <path d="M1006.41 1185.27V1177.88L681.256 882.03L1006.41 1185.27Z" fill="#040000" />
    <path d="M1006.41 1134.87V1126.42L640.083 824.244L1006.41 1134.87Z" fill="#040000" />
    <path d="M1006.41 1113.83V1104.86L681.069 848.761L1006.41 1113.83Z" fill="#040000" />
    <path d="M1006.41 1075.73V1062.28L662.467 816.615L1006.41 1075.73Z" fill="#040000" />
    <path d="M1006.41 1053.78V1042.76L628.495 784.016L1006.41 1053.78Z" fill="#040000" />
    <path d="M1006.41 1010.02V1004.84L676.085 798.934L1006.41 1010.02Z" fill="#040000" />
    <path d="M1006.41 991.257V980.687L650.392 773.968L1006.41 991.257Z" fill="#040000" />
    <path d="M1006.41 971.277V967.099L746.192 821.514L1006.41 971.277Z" fill="#040000" />
    <path d="M1006.41 936.007V932.745L723.679 790.317L1006.41 936.007Z" fill="#040000" />
    <path d="M1006.41 921.392V913.904L759.653 798.783L1006.41 921.392Z" fill="#040000" />
    <path d="M1006.41 884.394V879.069L724.708 762.897L1006.41 884.394Z" fill="#040000" />
    <path d="M1006.41 868.707V861.287L728.177 755.373L1006.41 868.707Z" fill="#040000" />
    <path d="M1006.41 850.655V846.52L742.632 751.875L1006.41 850.655Z" fill="#040000" />
    <path d="M1006.41 820.191V815.43L782.72 747.26L1006.41 820.191Z" fill="#040000" />
    <path d="M1006.41 792.799V789.612L741.641 719.434L1006.41 792.799Z" fill="#040000" />
    <path d="M1006.41 779.097V775.107L720.572 706.333L1006.41 779.097Z" fill="#040000" />
    <path d="M1006.41 751.522V747.261L747.562 697.251L1006.41 751.522Z" fill="#040000" />
    <path d="M1006.41 735.968V733.484L725.676 685.035L1006.41 735.968Z" fill="#040000" />
    <path d="M1006.41 713.562V706.074L692.307 667.249L1006.41 713.562Z" fill="#040000" />
    <path d="M1006.41 685.085V681.344L777.583 662.34L1006.41 685.085Z" fill="#040000" />
    <path d="M1006.41 659.306V654.4L802.841 647.224L1006.41 659.306Z" fill="#040000" />
    <path d="M1006.41 634.16V627.073L743.297 629.665L1006.41 634.16Z" fill="#040000" />
    <path d="M1006.41 620.343V616.644L719.234 623.256L1006.41 620.343Z" fill="#040000" />
  </g>
  <path
    d="M1817.05 718.639C1799.82 726.037 1782.18 735.354 1765.21 746.526C1748.26 757.418 1730.77 772.329 1720.14 791.748C1709.14 811.055 1705.7 834.088 1706.92 854.896C1708.07 875.717 1712.25 895.858 1719.36 913.869C1726.37 931.863 1735.7 947.317 1744.96 960.044C1747.12 963.03 1749.27 965.847 1751.41 968.554C1739.44 964.639 1725.71 961.767 1710.9 959.914C1696.33 958.295 1680.75 957.595 1664.14 960.14C1655.9 961.439 1647.11 963.397 1637.99 969.652L1634.64 972.162C1633.73 972.969 1633.06 973.718 1632.27 974.508C1630.7 976.043 1629.21 977.634 1627.84 979.323C1624.99 982.609 1622.43 986.114 1620.17 989.737C1601.63 1018.97 1600.26 1055.7 1606.62 1084.42C1610.04 1100.15 1614.82 1113.96 1619.7 1125.76C1617.27 1123.32 1614.71 1120.85 1612.13 1118.21C1601.08 1108.25 1587.97 1097.92 1572.99 1088.61C1542.93 1070.33 1506.76 1053.34 1467.29 1048.64C1462.34 1048.12 1457.18 1048.09 1452.09 1047.89L1444.12 1048.59C1441.48 1048.79 1438.82 1049.04 1436.03 1049.92L1427.81 1052.19L1420.93 1055.12C1416.29 1056.94 1411.98 1059.49 1407.55 1061.7C1390.33 1071.54 1375.26 1084.35 1363.75 1098.27C1355.64 1107.99 1349 1117.83 1343.41 1127.38C1343.39 1125.02 1343.36 1122.66 1343.22 1120.24C1342.59 1107.67 1340.22 1094.43 1335.94 1081.35C1333.63 1074.82 1331.14 1068.31 1327.54 1061.93C1325.92 1058.75 1323.71 1055.56 1321.49 1052.43L1317.32 1047.67C1316.44 1046.85 1315.38 1046.01 1314.37 1045.2C1313.2 1044.34 1312.16 1043.35 1310.58 1042.89C1308.87 1042.21 1307.16 1041.53 1305.41 1040.83C1287.8 1037.86 1273.45 1043.98 1261.55 1050.64C1249.66 1057.66 1240.1 1065.3 1230.88 1073.01C1220.24 1082.06 1211.2 1091.34 1203.99 1099.94C1204.59 1092.75 1204.87 1084.87 1204.43 1076.29C1203.94 1067.92 1202.83 1059.03 1200.17 1049.69C1197.49 1040.24 1193.07 1030.82 1186.65 1022.16C1180.26 1013.54 1171.66 1005.55 1160.67 1000.49C1149.76 995.245 1136.68 993.916 1125.03 995.876C1113.26 997.738 1102.67 1002.11 1092.99 1006.99C1083.25 1011.96 1074.57 1017.37 1065.78 1022.74C1030.87 1044.46 997.147 1071.34 970.127 1098.5C966.082 1102.52 962.245 1106.54 958.513 1110.55C962.311 1101.7 966.03 1092.42 969.574 1082.73C977.074 1062.47 983.824 1040.61 989.867 1018.21C995.592 995.914 1002.04 972.837 1003.4 948.229C1004.07 936.013 1003.35 923.202 1000.16 910.552C998.497 904.241 996.205 898.04 993.326 892.098C990.273 886.218 986.736 880.614 982.607 875.57C965.902 855.275 942.755 843.756 920.705 838.049C909.236 835.238 899.14 834.168 889.272 832.653C879.367 831.282 869.796 830.17 860.683 829.474C851.832 828.788 843.435 828.544 835.616 828.697C839.162 825.852 842.696 822.768 846.139 819.134C856.348 808.013 866.452 793.615 869.624 773.414C870.737 763.142 868.877 752.34 864.657 743.07C860.564 733.652 854.639 725.415 847.91 718.153C841.241 710.917 833.401 704.434 825.421 699.283C817.581 693.843 809.265 689.137 800.847 685.018C771.098 670.335 737.68 663.177 707.185 660.141C708.442 659.92 709.653 659.756 710.92 659.521C734.118 655.05 758.595 648.031 782.079 636.754C805.666 625.358 827.535 609.438 845.202 590.049C854.12 580.461 862.147 569.738 868.768 558.075C875.389 546.454 880.98 534.022 884.242 520.917C887.557 507.87 889.246 494.414 888.624 481.221C888.074 467.782 884.922 455.096 880.796 443.586C872.426 420.47 860.286 401.393 848.526 385.426C845.495 381.405 842.477 377.589 839.492 373.968C840.797 374.469 841.992 375.032 843.344 375.506C859.017 381.145 877.536 384.099 896.727 385.044C906.399 385.488 915.921 385.766 926.546 385.214C936.965 384.615 947.522 383.02 957.932 380.366C978.753 375.127 999.051 365.724 1016.28 352.575C1024.92 345.945 1032.86 338.597 1039.99 329.726C1041.85 327.012 1043.65 324.238 1045.38 321.448L1048.82 313.014C1050.09 310.175 1050.39 307.449 1051.2 304.658C1051.9 301.88 1052.59 299.1 1052.86 296.405C1056.05 274.622 1054.63 254.113 1052.3 235.076C1049.26 212.086 1044.53 191.307 1039.17 173.787C1054.21 190.345 1073.17 209.141 1095.29 228.122C1111.99 242.445 1130.39 256.903 1150.24 270.259C1170.11 283.551 1191.41 295.92 1214.43 304.655C1220.36 306.531 1226.01 308.975 1232.25 310.356C1238.44 311.833 1244.73 313.419 1250.65 314.142C1262.67 316.147 1274.83 317.137 1286.88 317.886C1311.02 318.985 1334.82 317.488 1356.9 313.935C1399.13 307.229 1434.34 292.519 1457.01 279.215C1457.46 286.8 1459.53 295.414 1463.92 304.021C1466.75 309.631 1470.62 315.336 1475.53 320.444C1480.27 325.484 1485.84 330.032 1491.85 334.061C1503.93 342.216 1517.61 347.859 1531.52 352.905C1545.6 357.727 1560.36 361.332 1575.02 363.576C1604.35 368.143 1635.82 366.715 1662.66 360.275C1677.31 356.905 1690.42 352.118 1701.56 346.993C1693.17 359.349 1684.46 374.529 1677.35 392.399C1671.43 407.185 1667.13 424.001 1665.88 441.709C1665.46 446.114 1665.67 450.621 1665.6 455.096C1666.03 459.572 1665.97 464.117 1666.88 468.553C1667.7 472.999 1668.38 477.461 1669.36 481.87C1670.73 486.209 1672.1 490.544 1673.47 494.852C1679.95 511.838 1691.38 527.527 1705.5 538.885C1719.56 550.367 1735.65 557.808 1751.02 562.531C1772.36 569.032 1792.27 570.851 1808.65 570.681C1802.14 577.207 1796.18 585.831 1792.27 596.342C1788.38 606.458 1786.5 618.486 1788.65 630.98C1789.91 637.159 1791.87 643.508 1795.59 649.074C1799.07 654.782 1803.24 658.963 1807.37 662.976C1824.23 678.171 1843.95 687.951 1862.03 695.426C1866.5 697.201 1870.89 698.779 1875.15 700.172C1857.68 703.845 1837.72 709.758 1817.05 718.639Z"
    fill="white" />
  <path
    d="M1463.9 267.771C1461.33 263.09 1456.43 260.604 1452.62 262.071C1429.35 271.259 1394.34 283.206 1353.13 287.988C1332.58 290.402 1310.62 291.176 1288.43 289.79C1277.34 288.901 1266.17 287.869 1255.15 285.922C1249.41 285.182 1244.58 283.812 1239.59 282.641C1234.61 281.576 1229.58 279.343 1224.6 277.808C1204.64 270.275 1184.67 259.005 1165.74 246.774C1146.77 234.485 1128.73 221.097 1112.06 207.953C1078.66 181.639 1050.91 156.092 1032.03 139.074C1028.94 136.301 1023.47 136.878 1019.44 140.386C1015.42 143.899 1014.25 149.265 1016.81 152.765C1032.4 174.112 1058.54 203.023 1091.94 232.152C1108.64 246.714 1127.11 261.385 1147.14 274.952C1167.2 288.455 1188.76 301.04 1212.4 310.017C1218.52 311.968 1224.29 314.446 1230.78 315.893C1237.22 317.429 1243.79 319.062 1249.75 319.772C1261.97 321.801 1274.33 322.781 1286.57 323.495C1311.1 324.538 1335.27 322.897 1357.65 319.117C1402.57 311.633 1439.66 294.99 1461.96 280.28C1465.65 277.887 1466.47 272.452 1463.9 267.771Z"
    fill="black" />
  <path
    d="M1725.84 325.884C1723.23 321.22 1719.41 318.184 1717.04 318.915C1702.56 323.562 1681.74 330.754 1657.35 334.599C1633.06 338.649 1605.33 339.238 1579.3 335.19C1566.29 333.196 1553.16 330.162 1540.48 326.232C1527.84 322.054 1515.62 317.56 1505.89 311.909C1500.99 309.108 1496.59 306.096 1492.81 302.85C1489.17 299.812 1486.17 296.423 1483.59 292.82C1478.43 285.617 1475.55 278.15 1474.07 272.014C1473.54 270.082 1469.27 268.228 1463.9 267.772C1458.63 267.312 1453.94 269.376 1453.61 272.574C1452.51 282.095 1454.14 294.179 1459.99 306.257C1462.88 312.269 1466.92 318.44 1472.08 323.96C1477.01 329.353 1482.82 334.208 1489.05 338.49C1501.59 347.147 1515.57 353.017 1529.73 358.236C1544.1 363.237 1559.18 366.958 1574.17 369.249C1604.15 373.918 1636.38 372.325 1663.72 365.407C1691.19 358.733 1713.42 347.02 1726.6 337.014C1728.79 335.382 1728.43 330.545 1725.84 325.884Z"
    fill="black" />
  <path
    d="M1833.54 562.57C1833.3 557.233 1830.94 552.818 1828.12 552.431C1819.41 551.454 1808.78 549.847 1796.94 547.875C1785.16 545.569 1772.19 542.49 1759.35 537.661C1746.52 532.85 1733.85 526.194 1723.46 517.221C1713.03 508.304 1705.11 497.094 1700.24 484.531C1699.22 481.3 1698.17 478.051 1697.13 474.79L1695.15 464.461C1694.32 461.035 1694.42 457.448 1693.95 453.952C1694 450.391 1693.69 446.861 1693.96 443.279C1694.61 429.014 1697.54 414.708 1701.96 401.401C1710.7 374.682 1723.43 351.951 1731.24 335.998C1732.53 333.395 1730.17 328.998 1725.84 325.884C1721.49 322.768 1716.55 322.059 1714.46 324.284C1701.84 337.906 1684.87 360.276 1672.43 390.589C1666.21 405.671 1661.64 422.996 1660.28 441.388C1659.82 445.962 1660.02 450.659 1659.93 455.314C1660.36 459.986 1660.3 464.723 1661.24 469.359C1662.06 474.005 1662.79 478.664 1663.81 483.276C1665.25 487.831 1666.69 492.383 1668.12 496.904C1674.92 514.781 1687.06 531.36 1701.91 543.201C1716.71 555.195 1733.48 562.788 1749.36 567.499C1781.36 576.876 1810 575.935 1828.57 572.894C1831.64 572.403 1833.78 567.905 1833.54 562.57Z"
    fill="black" />
  <path
    d="M804.191 346.175C801.114 350.541 800.995 355.813 803.986 358.318C813.081 365.816 825.917 373.888 841.998 379.824C858.06 385.907 877.071 389.15 896.545 390.276C906.397 390.813 915.88 391.183 926.938 390.665C937.688 390.109 948.587 388.511 959.339 385.806C980.849 380.468 1001.87 370.783 1019.76 357.135C1028.75 350.226 1036.93 342.663 1044.44 333.298C1046.54 330.286 1048.54 327.181 1050.44 324.057L1054.17 314.915C1055.52 311.806 1055.84 308.995 1056.68 306.017C1057.41 303.067 1058.14 300.119 1058.41 297.331C1061.65 274.601 1060.04 253.811 1057.52 234.502C1052.06 196.012 1041.82 163.784 1031.32 142.747C1029.52 139.278 1024.35 138.278 1019.44 140.383C1014.53 142.486 1011.36 146.655 1012.16 149.947C1016.86 170.521 1023.31 202.259 1026.25 237.91C1027.61 255.609 1028.03 274.675 1025.13 291.747C1024.89 293.974 1024.32 295.896 1023.78 297.832C1023.17 299.675 1022.94 301.985 1022.1 303.462C1021.38 305.086 1020.71 306.715 1020.08 308.378C1019.19 309.481 1018.43 310.611 1017.74 311.831C1012.55 318.208 1005.77 324.512 998.902 329.747C984.958 340.388 968.262 348.376 950.886 353.129C933.422 358.159 915.944 358.877 897.604 358.828C879.856 358.811 863.817 357.32 850.04 353.873C836.238 350.537 824.511 345.649 815.04 341.088C812 339.594 807.271 341.806 804.191 346.175Z"
    fill="black" />
  <path
    d="M587.771 661.418C588.015 666.753 591.634 671.042 596.13 671.265C623.576 672.368 664.735 673.072 711.988 664.655C735.526 660.285 760.481 653.279 784.543 641.806C808.799 630.169 831.25 613.874 849.421 593.925C858.6 584.059 866.877 573.005 873.704 560.936C880.537 548.912 886.317 536.021 889.675 522.381C893.087 508.805 894.794 494.771 894.093 481.028C893.445 466.911 890.091 453.728 885.753 441.887C876.97 418.118 864.395 398.851 852.241 382.828C839.879 366.926 827.704 354.247 817.111 344.903C813.603 341.857 807.998 342.429 804.194 346.178C800.382 349.925 799.496 355.451 802.158 358.881C810.271 369.482 820.056 382.795 829.984 398.408C839.739 414.059 849.756 432.236 855.992 452.062C859.1 461.954 861.182 472.121 861.288 482.178C861.493 492.601 859.901 503.188 857.09 513.595C854.353 524.043 849.628 534.146 844.067 543.758C838.511 553.4 831.714 562.459 824.064 570.651C808.991 587.24 790.009 601.282 769.763 611.468C749.188 621.777 727.047 628.83 705.595 633.853C662.511 643.688 622.238 646.645 595.165 650.822C590.723 651.467 587.519 656.081 587.771 661.418Z"
    fill="black" />
  <path
    d="M806.365 838.17C808.472 843.058 812.803 845.995 816.276 844.678C826.617 840.614 838.504 833.355 849.539 822.102C855.041 816.467 860.34 809.823 864.861 801.944C869.35 793.872 873.154 785.385 874.837 773.936C876.154 762.651 874.125 750.796 869.639 740.817C865.284 730.668 859.038 721.937 851.993 714.29C845.051 706.689 836.794 699.847 828.62 694.549C820.553 688.939 812.012 684.093 803.371 679.861C768.612 662.724 729.266 655.798 695.282 653.886C661.117 651.975 631.634 654.018 611.896 656.691C608.664 657.14 606.22 661.605 606.247 666.945C606.273 672.285 608.757 676.734 611.962 677.161C631.599 679.82 660.546 681.334 692.408 685.221C724.22 689.079 758.994 696.32 788.226 710.791C795.533 714.37 802.689 718.374 809.436 722.966C816.415 727.343 822.166 732.046 827.437 737.456C838.057 748.138 844.122 760.578 843.548 770.814C843.304 773.232 842.892 776.338 841.936 779.352C841.145 782.361 839.927 785.326 838.666 788.222C836.052 794.013 832.691 799.431 829.066 804.276C821.781 813.995 813.602 821.357 806.627 826.631C804.392 828.277 804.242 833.252 806.365 838.17Z"
    fill="black" />
  <path
    d="M912.977 1181.56C917.572 1184.27 923.008 1183.74 925.479 1180.28C940.672 1159.26 959.232 1125.25 974.52 1084.46C982.243 1064.11 989.158 1042.13 995.307 1019.62C998.309 1008.26 1001.24 997.215 1003.84 985.291C1006.42 973.472 1008.43 961.178 1009.12 948.53C1009.82 935.902 1009.08 922.501 1005.69 909.141C1003.93 902.474 1001.49 895.891 998.417 889.583C995.16 883.323 991.375 877.373 986.987 872.037C969.196 850.566 944.97 838.75 922.077 832.986C916.456 831.638 910.139 830.493 905.232 829.851C900.074 829.148 895.02 828.46 890.068 827.787C880.089 826.519 870.413 825.528 861.174 824.974C842.717 823.832 826.015 824.573 812.693 827.164C808.297 828.02 805.579 832.911 806.365 838.169C807.16 843.476 810.696 847.478 814.528 847.553C826.404 847.777 841.209 849.178 858.207 851.976C866.705 853.356 875.754 855.073 885.289 856.984C890.091 857.966 894.996 858.972 899.98 859.989C905.224 861.013 909.162 862.022 913.835 863.351C931.688 868.769 949.413 878.787 960.704 893.217C972.118 907.298 975.979 926.326 974.755 946.709C973.728 966.96 967.971 989.035 962.658 1011.12C957.161 1032.98 951.222 1054.28 944.833 1074.08C932.211 1113.74 917.751 1147.35 907.691 1170.16C906.073 1173.9 908.38 1178.85 912.977 1181.56Z"
    fill="black" />
  <path
    d="M1194.3 1124.25C1199.6 1124.77 1204.32 1122.39 1205.07 1118.71C1207.31 1107.46 1209.52 1093.11 1208.93 1075.88C1208.57 1067.24 1207.56 1058.06 1204.87 1048.21C1202.13 1038.21 1197.57 1028.23 1190.81 1018.96C1184.07 1009.75 1174.88 1001.08 1162.92 995.503C1151.02 989.715 1136.62 988.231 1124.13 990.322C1111.47 992.295 1100.38 996.89 1090.39 1001.9C1080.32 1007.03 1071.63 1012.44 1062.74 1017.88C1027.5 1039.81 993.527 1067.06 966.492 1094.72C939.307 1122.26 919.287 1150.17 908.348 1170.4C906.54 1173.71 908.564 1178.55 912.977 1181.56C917.391 1184.57 922.648 1184.86 925.052 1182.21C939.777 1165.91 961.207 1141.85 988.316 1117.37C1015.27 1092.78 1047.74 1067.76 1080.97 1047.09C1097.76 1036.74 1114.64 1026.2 1129.53 1023.64C1136.95 1022.31 1143.41 1022.89 1149.44 1025.45C1155.52 1027.92 1161.23 1032.51 1165.88 1038.16C1170.55 1043.79 1174.23 1050.39 1176.65 1057.06C1179.16 1063.89 1180.79 1071.31 1181.89 1078.35C1184.07 1092.55 1184.25 1105.98 1184.68 1116.98C1184.82 1120.56 1188.98 1123.74 1194.3 1124.25Z"
    fill="black" />
  <path
    d="M1325.84 1182.72C1330.92 1184.4 1335.65 1183.99 1336.74 1181.74C1343.67 1168.29 1349.59 1145.77 1348.44 1119.78C1347.96 1106.81 1345.63 1093.12 1341.26 1079.51C1338.89 1072.7 1336.32 1065.91 1332.53 1059.14C1330.81 1055.78 1328.43 1052.31 1326.02 1048.91L1323.71 1046.22C1322.85 1045.3 1321.82 1044.03 1320.73 1043.02C1318.16 1041.25 1315.8 1039.04 1312.99 1037.77L1309.73 1036.48L1308.92 1036.16L1308.71 1036.08L1308.57 1035.8L1308.15 1035.68L1306.45 1035.18C1299.61 1034.02 1295.82 1034.24 1291.4 1034.53C1287.06 1034.88 1282.92 1035.76 1279.03 1036.88C1271.19 1039.13 1264.39 1042.48 1258.24 1046.08C1245.96 1053.5 1236.58 1061.2 1227.33 1069.18C1209.2 1085.08 1195.82 1101.88 1188.89 1114.64C1187.72 1116.79 1190.09 1120.96 1194.3 1124.25C1198.5 1127.54 1203.06 1128.98 1204.76 1127.56C1215 1119.02 1229.31 1106.32 1246.93 1093.58C1255.6 1087.37 1265.63 1080.34 1274.79 1075.37C1279.41 1072.91 1284 1070.92 1288.23 1069.83C1290.33 1069.28 1292.36 1068.88 1294.24 1068.78C1296.02 1068.61 1298.52 1068.79 1297.76 1068.76L1297.76 1068.77C1297.93 1068.88 1297.2 1068.25 1298.83 1069.97C1300.06 1071.81 1301.41 1073.54 1302.63 1075.88C1305.21 1080.22 1307.34 1085.4 1309.36 1090.51C1313.15 1100.96 1315.76 1111.96 1317.11 1122.49C1319.99 1143.6 1318.39 1162.69 1317.12 1175.92C1316.99 1178.09 1320.78 1181.05 1325.84 1182.72Z"
    fill="black" />
  <path
    d="M1635.26 1156.55C1639.71 1153.58 1641.76 1148.91 1639.91 1145.76C1638.51 1143.39 1637 1140.84 1635.33 1138.25C1633.47 1135.83 1631.52 1133.3 1629.5 1130.67C1625.51 1125.2 1620.34 1120.37 1615.08 1114.77C1604.02 1104.41 1590.8 1093.71 1575.68 1084.11C1545.25 1065.25 1508.8 1047.84 1467.89 1042.93C1462.74 1042.39 1457.31 1042.36 1451.98 1042.16L1443.48 1042.9C1440.67 1043.12 1437.85 1043.4 1434.77 1044.35C1431.76 1045.14 1428.77 1045.98 1425.8 1046.86L1418.67 1049.91C1413.88 1051.81 1409.42 1054.46 1404.85 1056.77C1387.03 1067.02 1371.51 1080.4 1359.82 1094.81C1336.15 1123.72 1324.81 1153.41 1318.83 1173.25C1317.86 1176.53 1320.93 1180.65 1325.84 1182.72C1330.76 1184.81 1335.86 1184.27 1337.56 1181.47C1348.03 1164.44 1362.01 1138.43 1383.4 1115.61C1393.99 1104.12 1406.82 1094.14 1421.1 1086.35C1424.81 1084.65 1428.33 1082.57 1432.21 1081.16L1437.9 1078.83C1439.41 1078.52 1440.9 1078.18 1442.37 1077.77C1443.72 1077.23 1445.51 1077.12 1447.33 1077.03L1452.65 1076.55C1456.55 1076.81 1460.35 1076.77 1464.3 1077.18C1480.22 1078.97 1497.26 1083.62 1513.46 1089.78C1529.7 1095.93 1545.28 1103.36 1559.54 1111.13C1573.81 1118.96 1586.41 1127.48 1597.39 1135.39C1602.49 1139.66 1607.87 1143.29 1611.98 1147.27C1614.16 1149.18 1616.26 1151.01 1618.28 1152.76C1620.1 1154.6 1621.85 1156.36 1623.52 1158.03C1625.7 1160.15 1630.82 1159.51 1635.26 1156.55Z"
    fill="black" />
  <path
    d="M1913.55 701.357C1912.85 696.064 1909.5 692.083 1905.8 692.229C1883.36 692.907 1850.05 699.133 1814.9 713.858C1797.34 721.206 1779.38 730.554 1762.07 741.854C1744.83 752.835 1726.33 768.454 1715.13 788.954C1703.5 809.374 1699.96 833.684 1701.3 855.127C1702.56 876.567 1706.98 897.196 1714.44 915.682C1721.8 934.122 1731.56 949.798 1741.19 962.56C1750.84 975.371 1760.37 985.466 1768.48 993.088C1771.14 995.582 1776.29 994.784 1780.33 991.294C1784.37 987.802 1786.05 982.866 1784.17 979.942C1772.82 961.974 1754.47 936.384 1743.96 904.807C1738.66 889.183 1735.64 871.477 1735.01 853.729C1734.42 836.117 1737.39 819.451 1745.2 805.718C1752.93 791.726 1765.42 780.308 1780.87 769.889C1796.18 759.351 1812.22 750.179 1827.84 742.531C1859.12 727.202 1888.7 718.212 1908.98 712.451C1912.28 711.486 1914.26 706.649 1913.55 701.357Z"
    fill="black" />
  <path
    d="M1913.55 701.356C1914.52 696.103 1914.06 691.445 1912.52 690.669C1902.96 685.975 1888.51 679.592 1872.64 671.436C1857.02 663.243 1839.19 653.171 1826.88 641.909C1824.03 639.154 1821.2 636.243 1819.77 633.853C1818.04 631.639 1817.1 628.658 1816.26 625.602C1814.85 619.311 1815.16 611.757 1817.1 604.733C1820.79 590.384 1829.18 579.344 1835.58 573.077C1836.58 572.049 1835.71 567.444 1833.55 562.569C1831.37 557.685 1828.04 554.405 1825.81 555.098C1812.44 559.037 1795.72 572.967 1787.32 594.659C1783.02 605.385 1780.84 618.312 1783.14 632.051C1784.46 638.849 1786.65 645.873 1790.76 652.108C1794.65 658.483 1799.09 662.915 1803.48 667.186C1821.25 683.159 1841.33 692.886 1859.91 700.219C1878.54 707.229 1895.89 710.866 1908.28 710.695C1910.32 710.681 1912.6 706.611 1913.55 701.356Z"
    fill="black" />
  <path
    d="M1780.33 991.294C1783.96 987.377 1784.85 982.442 1782.14 979.962C1766.18 966.792 1740.95 958.778 1711.38 954.692C1696.51 952.882 1680.63 952.005 1663.19 954.592C1654.55 955.976 1645.17 957.856 1634.6 965.049L1630.75 967.98C1629.73 968.875 1629.04 969.647 1628.19 970.496C1626.53 972.132 1624.93 973.819 1623.47 975.61C1620.44 979.102 1617.72 982.828 1615.33 986.656C1595.71 1017.62 1594.62 1055.94 1601.46 1085.37C1608.28 1115.12 1619.92 1137.79 1628.31 1152.44C1629.72 1154.83 1634.62 1155.14 1639.59 1153.18C1644.56 1151.22 1647.95 1147.65 1647.35 1144.95C1643.91 1128.48 1636.13 1105.23 1632.39 1079.68C1630.6 1066.85 1630.06 1053.73 1631.95 1040.74C1633.77 1027.79 1637.92 1015.25 1644.39 1005.11C1645.96 1002.55 1647.74 1000.12 1649.67 997.878C1650.59 996.699 1651.6 995.621 1652.65 994.577L1654.14 993.061L1654.92 992.642C1656.85 991.118 1662.66 988.78 1668.87 987.871C1681.33 985.549 1695.48 985.393 1708.52 986.03C1734.67 987.392 1758.39 992.112 1770.73 996.96C1772.45 997.691 1776.7 995.21 1780.33 991.294Z"
    fill="black" />
  <path
    d="M926.964 806.858C921.363 808.447 915.273 810.291 908.695 812.389C902.116 814.488 896.342 816.403 891.373 818.135C892.94 809.132 894.304 799.121 895.463 788.102C896.806 776.859 897.997 765.117 899.034 752.876C900.275 740.614 901.302 728.271 902.116 715.847C903.112 703.198 904.058 691.069 904.953 679.46C906.518 651.943 907.992 623.509 909.374 594.159L1011.2 578.719L1006.1 617.184L958.137 621.986L954.11 677.316C960.404 676.48 966.402 675.776 972.105 675.206C976.79 674.737 981.576 674.257 986.464 673.768C991.352 673.279 995.11 672.8 997.738 672.331C997.698 678.095 997.444 683.778 996.976 689.379C996.712 694.96 996.447 700.54 996.183 706.121C993.535 706.386 989.767 706.763 984.879 707.253C979.971 707.539 974.858 707.845 969.542 708.171C964.43 708.477 958.605 708.855 952.067 709.303L947.036 800.837C940.233 802.752 933.543 804.759 926.964 806.858ZM1077.59 789.31C1071.27 789.942 1064.57 790.819 1057.49 791.94C1050.6 793.04 1043.64 794.355 1036.59 795.883C1029.54 797.411 1022.63 799.235 1015.84 801.354C1009.25 803.249 1003.29 805.388 997.973 807.772C998.277 798.484 998.683 788.158 999.191 776.792C999.699 765.427 1000.37 753.634 1001.2 741.413C1002.24 729.172 1003.17 716.839 1003.98 704.415C1005 691.97 1006.06 680.034 1007.18 668.608C1009.6 641.417 1012.28 613.686 1015.21 585.415L1067.97 573.036C1064.84 597.213 1061.85 620.758 1059 643.672C1057.71 653.469 1056.47 663.674 1055.27 674.285C1054.05 684.693 1052.91 694.888 1051.85 704.868C1050.8 714.848 1049.91 724.503 1049.2 733.831C1048.49 743.16 1047.98 751.439 1047.67 758.67C1052.73 757.753 1058.1 757.009 1063.81 756.438C1069.69 755.643 1074.88 755.021 1079.36 754.573C1079.95 758.422 1080.64 762.261 1081.44 766.09C1082.21 769.716 1082.95 773.036 1083.67 776.05C1084.58 779.044 1085.27 781.753 1085.71 784.176C1086.35 786.376 1086.8 787.873 1087.09 788.667C1085.46 788.83 1083.83 788.994 1082.2 789.157C1080.76 789.096 1079.22 789.147 1077.59 789.31ZM1137.76 786.989C1135.93 787.172 1132.29 787.845 1126.86 789.006C1121.6 789.944 1116.16 791.106 1110.54 792.491C1104.9 793.673 1099.77 794.804 1095.14 795.884C1090.72 796.944 1088.32 797.596 1087.93 797.84C1089.09 788.878 1090.16 779 1091.14 768.205C1092.3 757.186 1093.42 745.759 1094.49 733.925C1095.55 721.888 1096.5 709.759 1097.33 697.538C1098.17 685.317 1098.94 673.514 1099.65 662.128C1101.32 635.63 1102.91 608.418 1104.44 580.494L1151.33 568.085C1149.38 595.846 1147.48 623.088 1145.63 649.811C1144.92 661.197 1144.14 673 1143.31 685.221C1142.68 697.421 1141.94 709.53 1141.08 721.547C1140.43 733.544 1139.86 745.224 1139.35 756.59C1138.82 767.751 1138.29 777.884 1137.76 786.989ZM1147.31 792.513C1150.67 764.405 1153.78 736.939 1156.65 710.114C1157.79 698.891 1158.97 687.047 1160.19 674.582C1161.41 662.117 1162.55 649.866 1163.61 637.828C1164.66 625.791 1165.66 614.171 1166.6 602.968C1167.53 591.766 1168.25 581.511 1168.76 572.203C1174.49 569.778 1180.14 567.67 1185.72 565.877C1191.28 563.88 1196.96 562.077 1202.77 560.467C1208.77 558.837 1214.43 557.757 1219.72 557.227C1228.89 556.309 1236.68 557.072 1243.09 559.516C1249.71 561.939 1255.22 565.604 1259.62 570.512C1264 575.217 1267.35 580.95 1269.68 587.712C1272 594.474 1273.56 601.826 1274.35 609.77C1275.5 621.176 1274.46 632.388 1271.24 643.407C1268.23 654.406 1263.57 664.438 1257.28 673.502C1251.17 682.343 1243.78 689.666 1235.1 695.471C1226.63 701.257 1217.51 704.639 1207.73 705.618L1204.37 705.954C1203.43 713.042 1202.66 720.731 1202.05 729.021C1201.44 737.311 1200.97 744.969 1200.65 751.996C1200.04 760.286 1199.53 768.565 1199.12 776.834L1147.31 792.513ZM1213.65 595.173C1212.75 608.84 1211.79 621.794 1210.75 634.035C1209.71 646.276 1208.55 659.352 1207.27 673.263C1210.45 672.122 1213.62 669.953 1216.8 666.755C1220.16 663.333 1223.13 659.126 1225.72 654.136C1228.29 648.942 1230.17 643.096 1231.37 636.599C1232.57 630.101 1232.83 623.39 1232.13 616.465C1231.38 608.929 1229.08 603.4 1225.23 599.876C1221.58 596.333 1217.72 594.765 1213.65 595.173ZM1300.8 769.433C1295.2 771.022 1289.11 772.866 1282.53 774.965C1275.95 777.063 1270.18 778.978 1265.21 780.71C1266.78 771.707 1268.14 761.696 1269.3 750.677C1270.64 739.434 1271.83 727.692 1272.87 715.451C1274.11 703.189 1275.14 690.846 1275.95 678.422C1276.95 665.773 1277.89 653.644 1278.79 642.035C1280.35 614.518 1281.83 586.084 1283.21 556.734L1385.04 541.294L1379.94 579.759L1331.97 584.561L1327.95 639.891C1334.24 639.055 1340.24 638.352 1345.94 637.781C1350.63 637.312 1355.41 636.832 1360.3 636.343C1365.19 635.854 1368.95 635.375 1371.57 634.906C1371.53 640.67 1371.28 646.353 1370.81 651.954C1370.55 657.535 1370.28 663.115 1370.02 668.696C1367.37 668.961 1363.6 669.339 1358.72 669.828C1353.81 670.114 1348.69 670.42 1343.38 670.746C1338.27 671.052 1332.44 671.43 1325.9 671.878L1320.87 763.412C1314.07 765.327 1307.38 767.334 1300.8 769.433ZM1451.42 751.885C1445.11 752.517 1438.41 753.394 1431.32 754.515C1424.44 755.615 1417.47 756.93 1410.42 758.458C1403.38 759.986 1396.46 761.81 1389.68 763.929C1383.08 765.824 1377.12 767.963 1371.81 770.347C1372.11 761.059 1372.52 750.733 1373.03 739.367C1373.54 728.002 1374.21 716.209 1375.04 703.988C1376.08 691.747 1377 679.414 1377.82 666.99C1378.83 654.545 1379.9 642.61 1381.02 631.183C1383.44 603.992 1386.12 576.261 1389.05 547.99L1441.81 535.611C1438.67 559.788 1435.68 583.333 1432.83 606.247C1431.55 616.044 1430.31 626.249 1429.11 636.86C1427.89 647.268 1426.75 657.463 1425.69 667.443C1424.63 677.423 1423.75 687.078 1423.04 696.406C1422.32 705.735 1421.82 714.014 1421.51 721.245C1426.56 720.328 1431.94 719.584 1437.64 719.013C1443.53 718.218 1448.71 717.596 1453.19 717.148C1453.78 720.997 1454.48 724.836 1455.27 728.665C1456.05 732.291 1456.79 735.611 1457.5 738.625C1458.42 741.619 1459.1 744.328 1459.55 746.751C1460.18 748.951 1460.64 750.448 1460.93 751.242C1459.3 751.405 1457.67 751.569 1456.04 751.732C1454.59 751.671 1453.05 751.722 1451.42 751.885ZM1572.09 743.508C1567.08 744.832 1561.57 746.31 1555.56 747.94C1549.55 749.57 1544.15 751.037 1539.34 752.341C1539.48 745.538 1539.63 738.837 1539.8 732.238C1539.84 726.474 1539.77 720.72 1539.61 714.976C1539.65 709.212 1539.67 704.273 1539.67 700.159L1513.09 702.82L1505.27 748.037C1500.85 749.097 1495.63 750.34 1489.6 751.766C1483.55 752.989 1477.91 754.171 1472.68 755.312C1466.24 756.779 1459.91 758.236 1453.67 759.683C1459.11 731.778 1464.48 704.291 1469.8 677.222C1471.95 665.897 1474.16 654.053 1476.42 641.69C1478.88 629.306 1481.26 617.034 1483.54 604.874C1486 592.49 1488.31 580.636 1490.47 569.311C1492.62 557.987 1494.47 547.619 1495.99 538.209C1509.74 535.804 1523.67 533.175 1537.79 530.322C1552.11 527.449 1565.97 524.107 1579.37 520.297C1579.41 526.876 1579.51 535.094 1579.68 544.952C1580.02 554.586 1580.46 565.136 1580.99 576.603C1581.52 588.07 1582.1 600.046 1582.74 612.532C1583.37 625.017 1583.98 637.299 1584.57 649.377C1586.37 677.586 1588.24 707.537 1590.18 739.229C1584.17 740.859 1578.14 742.285 1572.09 743.508ZM1517.36 671.534C1518.18 671.453 1519.6 671.31 1521.64 671.106C1523.86 670.678 1526.09 670.352 1528.33 670.128C1530.76 669.679 1532.99 669.353 1535.02 669.149C1537.04 668.742 1538.44 668.395 1539.24 668.11C1539.12 666.888 1539.01 664.841 1538.93 661.969C1539.03 658.873 1539 655.482 1538.84 651.796C1538.86 647.885 1538.85 643.669 1538.81 639.147C1538.77 634.626 1538.74 630.206 1538.71 625.888C1538.49 615.419 1538.39 604.115 1538.4 591.975L1537.58 565.212L1533.03 565.977L1528.63 592.954L1517.36 671.534ZM1591.56 748.039C1594.91 719.931 1598.03 692.465 1600.9 665.64C1602.04 654.418 1603.22 642.574 1604.44 630.108C1605.66 617.643 1606.8 605.392 1607.85 593.354C1608.91 581.317 1609.91 569.697 1610.84 558.495C1611.78 547.292 1612.5 537.037 1613.01 527.729C1618.73 525.304 1624.39 523.196 1629.97 521.403C1635.53 519.406 1641.21 517.603 1647.01 515.993C1653.02 514.363 1658.67 513.283 1663.97 512.753C1673.13 511.835 1680.93 512.598 1687.34 515.042C1693.96 517.465 1699.47 521.13 1703.87 526.039C1708.25 530.743 1711.6 536.476 1713.92 543.238C1716.25 550 1717.81 557.352 1718.6 565.296C1719.74 576.702 1718.71 587.914 1715.49 598.934C1712.48 609.932 1707.82 619.964 1701.53 629.028C1695.42 637.869 1688.03 645.192 1679.35 650.998C1670.88 656.783 1661.75 660.165 1651.98 661.144L1648.62 661.48C1647.68 668.568 1646.91 676.257 1646.3 684.547C1645.69 692.837 1645.22 700.495 1644.9 707.522C1644.29 715.812 1643.78 724.091 1643.37 732.361L1591.56 748.039ZM1657.89 550.699C1657 564.366 1656.03 577.32 1655 589.561C1653.96 601.802 1652.8 614.878 1651.52 628.79C1654.69 627.649 1657.87 625.479 1661.05 622.281C1664.41 618.859 1667.38 614.653 1669.97 609.662C1672.53 604.468 1674.42 598.622 1675.62 592.125C1676.82 585.627 1677.07 578.916 1676.38 571.991C1675.62 564.455 1673.32 558.926 1669.47 555.402C1665.83 551.859 1661.97 550.291 1657.89 550.699Z"
    fill="black" />
</svg>