<svg width="214" height="32" viewBox="0 0 214 32" fill="none" xmlns="http://www.w3.org/2000/svg">
<path d="M191.785 31.9379V26.3949L192.846 21.8728H183.112L179.983 31.9479H164.701V26.2704L165.455 23.8549H158.171V31.9379H106.452L103.433 23.7005L100.848 31.9379H82.5012L81.2486 27.9537V31.9379H56.5988L54.2395 29.6022L51.8802 31.9379H27.2304V27.0274C25.3792 27.3909 21.2692 28.1529 17.3756 28.885V31.928H0V4.71063H5.21669C6.47325 3.23499 8.04022 2.04888 9.80803 1.23522C11.5758 0.421566 13.5018 0 15.4514 0C17.4009 0 19.3269 0.421566 21.0947 1.23522C22.8625 2.04888 24.4295 3.23499 25.686 4.71063H27.2254V2.04119H43.8262V4.03331H52.1669L54.2445 6.09018L56.3423 4.04327H64.7081V2.05115H81.2838V4.08311H90.5501L91.8932 8.06736L93.2464 4.08311H102.779V2.02127H158.171V6.73761H168.901L169.837 9.7258L170.777 6.73761H182.609L184.078 2.02127H214V7.4996L209.216 31.9031L191.785 31.9379Z" fill="white"/>
<path d="M27.6321 23.7202H27.5164H27.6321ZM14.9651 26.1307L14.623 26.1954L14.9651 26.1307Z" fill="white"/>
<path d="M3.19922 7.87793V28.7952H14.1759V26.305C14.1759 26.305 27.6125 23.7352 27.698 23.7452C27.6679 23.6655 27.698 7.90283 27.698 7.90283L3.19922 7.87793Z" fill="#2B6BAA"/>
<path d="M27.698 7.87815H24.071C23.1534 6.43574 21.8815 5.24713 20.3741 4.42334C18.8667 3.59956 17.173 3.16748 15.4511 3.16748C13.7293 3.16748 12.0356 3.59956 10.5282 4.42334C9.02076 5.24713 7.74886 6.43574 6.83128 7.87815H3.19922V26.7485H14.1759V24.2584C14.1759 24.2584 27.6125 21.6885 27.698 21.6985C27.6679 21.6188 27.698 7.87815 27.698 7.87815Z" fill="#0096FA"/>
<path d="M23.3757 15.2018C24.4513 10.8665 21.7733 6.48881 17.3943 5.42397C13.0153 4.35912 8.59343 7.01033 7.51784 11.3456C6.44225 15.6809 9.12021 20.0585 13.4992 21.1234C17.8783 22.1882 22.3001 19.537 23.3757 15.2018Z" fill="#FCEC00"/>
<path d="M19.1956 13.1871C18.9974 13.2418 18.8269 13.3679 18.7177 13.5407C18.1501 14.5211 17.2147 15.2405 16.1148 15.5425C15.0148 15.8446 13.8388 15.7051 12.8421 15.1543C12.8213 15.1423 12.7994 15.1323 12.7767 15.1244C12.6075 15.044 12.4154 15.0246 12.2334 15.0696C12.1293 15.0973 12.0317 15.1451 11.9463 15.2102C11.8608 15.2753 11.7892 15.3564 11.7355 15.4489C11.6818 15.5414 11.647 15.6435 11.6331 15.7493C11.6193 15.8552 11.6267 15.9627 11.6548 16.0657C11.7071 16.2445 11.8211 16.3996 11.9768 16.504C13.3466 17.281 14.971 17.4909 16.4964 17.088C18.0218 16.685 19.3246 15.7018 20.1213 14.3525C20.2218 14.1734 20.2488 13.963 20.1967 13.7648C20.1501 13.5929 20.0474 13.441 19.9045 13.3329C19.7617 13.2248 19.5867 13.1666 19.4069 13.1671C19.3357 13.1656 19.2645 13.174 19.1956 13.192V13.1871ZM11.8963 10.5226C11.4966 10.6284 11.1524 10.8808 10.9337 11.2286C10.715 11.5764 10.6381 11.9935 10.7186 12.3953C10.7991 12.7972 11.031 13.1536 11.3672 13.3925C11.7034 13.6313 12.1187 13.7346 12.529 13.6814C12.9393 13.6282 13.3138 13.4225 13.5766 13.106C13.8393 12.7896 13.9706 12.386 13.9439 11.9772C13.9172 11.5684 13.7344 11.1849 13.4326 10.9047C13.1308 10.6244 12.7327 10.4682 12.3189 10.4678C12.1761 10.4662 12.0338 10.4847 11.8963 10.5226ZM17.1532 9.12812C16.7508 9.23432 16.4043 9.48811 16.184 9.83799C15.9637 10.1879 15.886 10.6076 15.9669 11.0121C16.0477 11.4166 16.281 11.7754 16.6193 12.0158C16.9576 12.2563 17.3757 12.3603 17.7886 12.3068C18.2015 12.2532 18.5784 12.0462 18.8428 11.7276C19.1072 11.409 19.2392 11.0028 19.2122 10.5914C19.1851 10.1799 19.0009 9.79411 18.697 9.51219C18.3931 9.23028 17.9923 9.07338 17.5758 9.07334C17.433 9.07172 17.2908 9.09017 17.1532 9.12812Z" fill="#0096FA"/>
<path d="M40.6328 15.2939H30.4258V28.7706H40.6328V15.2939Z" fill="#2B6BAA"/>
<path d="M40.6328 7.22559H30.4258V12.6143H40.6328V7.22559Z" fill="#2B6BAA"/>
<path d="M78.0644 15.2939H67.8574V28.7706H78.0644V15.2939Z" fill="#2B6BAA"/>
<path d="M78.0635 7.22559H67.8867V12.6143H78.0635V7.22559Z" fill="#2B6BAA"/>
<path d="M92.5329 16.1852L91.884 18.1026L91.24 16.1852L88.2318 7.25049H78.7441V9.27249L84.8714 28.7704H98.4841L104.606 9.27249V7.25049H95.5412L92.5329 16.1852Z" fill="#2B6BAA"/>
<path d="M54.2436 12.689L50.8379 9.32227H41.9941V13.949L46.4814 18.3914L47.1756 19.0837L46.6977 19.5618L45.9985 20.254L41.9941 24.2184V28.7703H50.5562L53.7606 25.5979L54.2436 25.1248L54.7265 25.5979L57.9259 28.7703H66.493V24.2184L62.4886 20.254L61.7894 19.5618L61.3065 19.0837L62.0057 18.3914L66.493 13.949V9.32227H57.6442L54.2436 12.689Z" fill="#2B6BAA"/>
<path d="M105.969 5.18848V7.21048L108.69 14.6212H118.897V19.3375H105.969V21.3595L108.69 28.7702H130.468V26.7482V11.9268V9.90482L128.425 5.18848H105.969Z" fill="#2B6BAA"/>
<path d="M131.83 7.21048L133.872 11.9268H154.971V9.90482V7.21048V5.18848H131.83V7.21048Z" fill="#2B6BAA"/>
<path d="M131.83 14.6216L133.872 19.338H154.971V17.316V14.6216V12.5996H131.83V14.6216Z" fill="#2B6BAA"/>
<path d="M131.83 22.0323L134.552 28.7706H154.971V26.7486V22.0323V20.0103H131.83V22.0323Z" fill="#2B6BAA"/>
<path d="M169.263 18.6656L166.542 9.90527H162.457V11.9273L165.179 20.6826H169.263V18.6656Z" fill="#2B6BAA"/>
<path d="M156.33 9.90527V11.9273L159.057 20.6826H163.136V18.6656L160.415 9.90527H156.33Z" fill="#2B6BAA"/>
<path d="M182.876 9.90527H173.137L167.9 26.7487V28.7707H177.64L182.876 11.9273V9.90527Z" fill="#2B6BAA"/>
<path d="M210.8 5.18848H197.167H194.445H186.442L182.875 16.6731V18.6951H193.595L194.652 15.2935H197.66L194.984 26.7482V28.7702H206.579L210.8 7.21048V5.18848Z" fill="#2B6BAA"/>
<path d="M40.6328 13.9492H30.4258V26.7536H40.6328V13.9492Z" fill="#0096FA"/>
<path d="M40.6328 5.20361H30.4258V10.5923H40.6328V5.20361Z" fill="#0096FA"/>
<path d="M78.0644 13.9492H67.8574V26.7536H78.0644V13.9492Z" fill="#0096FA"/>
<path d="M78.0635 5.20361H67.8867V10.5923H78.0635V5.20361Z" fill="#0096FA"/>
<path d="M95.5412 7.25049L92.5329 16.1852L91.884 18.1026L91.24 16.1852L88.2318 7.25049H78.7441L84.8714 26.7484H98.4841L104.606 7.25049H95.5412Z" fill="#0096FA"/>
<path d="M54.2436 10.5776L50.8379 7.21094H41.9941V12.0867L46.4814 16.5291L47.1756 17.2213L46.6977 17.6995L45.9985 18.3917L41.9941 22.361V26.7487H50.5562L53.7606 23.5762L54.2436 23.1031L54.7265 23.5762L57.9259 26.7487H66.493V22.361L62.4886 18.3917L61.7894 17.6995L61.3065 17.2213L62.0057 16.5291L66.493 12.0867V7.21094H57.6442L54.2436 10.5776Z" fill="#0096FA"/>
<path d="M109.37 26.7482H129.789V9.90482L127.747 5.18848H106.648L109.37 12.5992H118.898V19.3375H106.648L109.37 26.7482Z" fill="#FCEC00"/>
<path d="M132.51 5.18848L134.552 9.90482H154.292V5.18848H132.51Z" fill="#FCEC00"/>
<path d="M132.51 12.5996L134.552 17.316H154.292V12.5996H132.51Z" fill="#FCEC00"/>
<path d="M132.51 20.0103L135.231 26.7486H154.292V20.0103H132.51Z" fill="#FCEC00"/>
<path d="M156.33 9.90527H160.415L163.136 18.6656H159.057L156.33 9.90527Z" fill="#FCEC00"/>
<path d="M162.457 9.90527H166.542L169.263 18.6656H165.179L162.457 9.90527Z" fill="#FCEC00"/>
<path d="M182.876 9.90527H173.137L167.9 26.7487H177.64L182.876 9.90527Z" fill="#FCEC00"/>
<path d="M197.167 5.18848H194.445H186.442L182.875 16.6731H193.595L194.652 13.2715H198.133L194.984 26.7482H206.579L210.8 5.18848H197.167Z" fill="#FCEC00"/>
</svg>
