<?xml version="1.0" standalone="no"?>
<!DOCTYPE svg PUBLIC "-//W3C//DTD SVG 20010904//EN"
 "http://www.w3.org/TR/2001/REC-SVG-20010904/DTD/svg10.dtd">
<svg version="1.0" xmlns="http://www.w3.org/2000/svg"
 width="651.000000pt" height="651.000000pt" viewBox="0 0 651.000000 651.000000"
 preserveAspectRatio="xMidYMid meet">
<metadata>
Created by potrace 1.14, written by Peter Selinger 2001-2017
</metadata>
<g transform="translate(0.000000,651.000000) scale(0.100000,-0.100000)"
fill="#000000" stroke="none">
<path d="M2749 6483 c-14 -16 -47 -58 -72 -95 -26 -36 -53 -72 -60 -80 -7 -7
-39 -49 -72 -93 -32 -44 -75 -98 -96 -120 -49 -51 -62 -86 -44 -112 12 -17 8
-23 -38 -64 -29 -25 -76 -61 -105 -80 -40 -26 -59 -46 -76 -84 -36 -77 -46
-97 -67 -135 -18 -32 -20 -47 -14 -180 6 -139 5 -148 -19 -209 -14 -35 -28
-91 -31 -125 -3 -33 -13 -88 -22 -121 -9 -34 -15 -98 -14 -148 0 -72 -5 -101
-25 -155 -14 -37 -27 -94 -29 -127 -7 -94 -15 -182 -20 -205 -6 -32 -15 -115
-20 -190 -2 -42 -13 -86 -29 -120 -23 -49 -26 -67 -25 -173 0 -64 -2 -120 -4
-125 -3 -4 -8 -32 -12 -62 -16 -135 -58 -367 -90 -495 -30 -121 -47 -215 -71
-400 -10 -77 -45 -211 -75 -290 -50 -129 -97 -297 -114 -408 -8 -46 -28 -97
-61 -149 -14 -22 -45 -91 -70 -154 -55 -144 -73 -178 -145 -285 -32 -47 -78
-134 -102 -192 -34 -81 -69 -141 -153 -258 -60 -84 -136 -182 -170 -218 -33
-36 -87 -102 -119 -146 -32 -44 -62 -81 -66 -83 -4 -2 -36 -40 -71 -85 -34
-45 -83 -102 -109 -127 -62 -62 -77 -145 -43 -243 25 -74 58 -102 144 -122
223 -52 451 -5 590 122 30 27 102 85 160 128 58 43 143 118 190 165 47 48 106
103 131 123 26 20 61 60 80 89 18 29 63 87 100 129 88 101 209 307 268 457 10
26 30 72 44 102 159 349 188 419 265 626 56 151 65 178 78 248 3 16 16 42 29
58 14 16 25 33 26 36 2 23 9 47 24 86 16 41 20 44 58 48 57 6 273 2 357 -6
169 -16 237 -28 485 -86 66 -16 143 -32 170 -36 40 -6 487 -12 1065 -14 234
-1 342 50 501 240 30 36 65 76 79 90 47 47 59 75 56 127 -4 54 -23 98 -86 192
-23 34 -44 78 -47 97 -3 19 -10 37 -14 40 -5 3 -9 28 -9 55 0 28 -6 62 -14 77
-8 16 -17 48 -21 72 -10 69 -39 115 -95 149 -60 36 -180 24 -219 -23 -8 -9
-28 -23 -45 -30 -17 -7 -47 -30 -66 -49 -19 -20 -38 -37 -41 -37 -3 0 -20 28
-39 62 -38 72 -45 80 -87 102 -77 39 -173 5 -275 -98 -78 -79 -112 -88 -122
-32 -20 105 -112 315 -150 342 -66 46 -163 -10 -293 -168 -55 -68 -106 -108
-137 -108 -19 0 -64 69 -73 113 -9 48 -102 216 -129 234 -33 21 -59 12 -131
-44 -33 -26 -99 -78 -145 -114 -46 -37 -103 -78 -126 -93 -43 -27 -52 -52 -30
-74 9 -9 2 -9 -27 1 -22 8 -57 17 -77 21 -54 10 -61 30 -39 108 11 36 21 83
25 104 8 56 62 207 100 279 32 59 33 64 29 157 -4 95 -4 96 27 126 16 17 31
41 32 54 0 13 2 34 3 48 2 14 5 57 8 95 8 106 17 141 42 165 l22 21 23 -43
c56 -110 190 -252 277 -294 36 -18 72 -28 101 -28 41 0 49 5 81 41 20 22 59
82 86 134 28 51 63 110 78 132 l28 39 72 -111 c48 -74 81 -114 100 -122 24
-10 115 -8 167 4 47 10 105 51 180 125 l84 84 19 -54 c42 -117 63 -162 88
-180 34 -26 55 -15 80 41 34 75 100 205 112 219 8 10 16 -1 33 -48 34 -94 109
-196 165 -225 21 -11 34 -12 58 -4 34 12 48 34 81 123 23 60 111 159 138 154
9 -2 40 -37 69 -78 70 -100 116 -142 148 -136 15 3 94 73 208 188 103 102 215
204 254 231 101 68 153 122 153 157 0 52 -56 63 -78 16 -6 -13 -62 -62 -124
-109 -69 -51 -173 -146 -267 -242 l-154 -157 -19 23 c-10 13 -37 49 -58 79
-22 30 -46 63 -54 73 -18 24 -82 46 -109 39 -12 -3 -51 -35 -87 -71 -54 -54
-72 -80 -94 -139 -15 -40 -30 -72 -33 -72 -9 0 -76 80 -91 108 -7 15 -25 59
-39 97 -22 64 -60 115 -84 115 -26 0 -85 -75 -133 -170 l-54 -104 -22 72 c-27
89 -64 132 -112 132 -28 0 -43 -11 -108 -79 -97 -102 -143 -130 -224 -138
l-63 -6 -28 49 c-16 27 -34 55 -41 61 -7 7 -29 40 -49 73 -36 59 -61 76 -101
68 -26 -5 -84 -85 -155 -211 -76 -136 -88 -149 -129 -137 -46 13 -90 43 -141
97 -96 101 -145 175 -164 248 -7 25 -19 44 -33 50 -12 5 -21 17 -20 25 3 12
21 15 98 14 102 -1 350 -13 397 -19 88 -11 260 -17 514 -17 225 0 306 4 375
17 48 9 142 18 209 20 212 7 375 36 580 102 61 20 103 27 175 28 75 1 105 6
145 24 28 13 81 27 119 32 174 23 331 151 395 322 32 86 40 133 47 259 7 147
-2 166 -106 221 -41 21 -94 41 -119 44 -26 3 -53 11 -61 18 -53 44 -71 47
-357 47 l-275 1 -23 54 c-13 29 -31 56 -39 59 -17 7 -55 99 -102 247 -67 215
-99 257 -169 224 -38 -18 -111 -105 -143 -170 -52 -106 -101 -218 -127 -287
-15 -41 -31 -78 -35 -83 -3 -4 -70 -9 -148 -11 -151 -4 -203 4 -326 47 -62 23
-79 24 -190 20 -217 -9 -361 -3 -491 22 -11 2 -67 4 -125 5 -77 0 -100 3 -87
11 9 5 17 17 17 25 0 8 -34 71 -76 141 -154 257 -207 322 -281 342 -58 16 -77
13 -104 -16z m93 -64 c43 -23 133 -143 200 -267 17 -31 49 -83 70 -114 l39
-58 -341 2 c-187 1 -340 5 -340 8 0 3 8 15 18 26 22 23 100 121 126 157 10 14
43 57 73 94 30 37 68 89 85 116 34 51 38 53 70 36z m2118 -243 c49 -154 83
-232 114 -266 13 -14 26 -33 29 -42 6 -16 -6 -17 -146 -13 -84 2 -161 6 -172
9 -11 2 -46 7 -77 11 -32 4 -58 11 -58 15 0 47 167 394 211 439 l34 33 12 -28
c7 -16 31 -87 53 -158z m-1680 -280 c91 -2 175 -7 188 -10 42 -10 176 -20 247
-18 39 0 124 2 190 4 111 2 125 0 186 -25 90 -36 163 -45 364 -42 116 2 197
-1 255 -12 69 -12 195 -19 415 -23 13 0 26 -12 35 -33 25 -54 79 -47 80 11 0
26 -24 24 279 23 213 0 214 0 253 -26 36 -24 124 -49 140 -39 3 2 10 -1 13 -7
4 -6 27 -19 50 -29 62 -26 68 -44 60 -163 -12 -174 -56 -288 -145 -374 -48
-47 -148 -102 -196 -108 -16 -2 -47 -6 -69 -9 -22 -3 -60 -15 -85 -27 -36 -17
-66 -22 -145 -24 -80 -2 -120 -9 -200 -35 -203 -64 -335 -86 -550 -95 -72 -3
-141 -7 -155 -10 -14 -3 -51 -10 -82 -15 -92 -17 -672 -14 -843 5 -91 10 -278
19 -403 19 l-134 1 -24 -28 c-20 -23 -24 -39 -24 -91 0 -46 -4 -67 -16 -77
-40 -33 -51 -81 -68 -292 -4 -47 -11 -65 -37 -94 l-31 -36 4 -99 c4 -94 3
-102 -24 -154 -34 -63 -93 -232 -103 -289 -4 -22 -14 -62 -22 -89 -21 -67 -20
-138 3 -170 21 -28 43 -38 124 -59 30 -8 109 -30 175 -50 141 -41 152 -42 315
-33 127 7 136 6 240 -33 50 -19 76 -21 297 -21 144 0 243 -4 243 -9 0 -9 31
-23 55 -26 6 -1 24 7 41 17 27 16 55 18 213 18 166 0 203 -5 171 -25 -17 -11
-11 -44 10 -55 11 -6 29 -28 40 -50 23 -45 34 -53 59 -45 28 9 31 27 15 87
-17 66 -17 75 0 81 23 9 146 -34 171 -59 13 -13 29 -24 35 -24 20 0 129 -58
157 -84 15 -14 38 -45 52 -69 14 -24 45 -75 68 -113 71 -116 72 -112 -51 -252
-153 -174 -201 -206 -346 -228 -46 -7 -268 -6 -350 1 -47 4 -213 4 -526 0
-211 -2 -282 5 -459 46 -167 39 -267 58 -329 65 -28 3 -53 7 -56 9 -15 9 -207
19 -357 19 -135 -1 -166 -4 -188 -18 -26 -17 -74 -111 -78 -154 -1 -13 -10
-28 -20 -33 -21 -12 -33 -39 -41 -95 -4 -21 -13 -59 -20 -84 -23 -75 -143
-382 -197 -502 -28 -62 -87 -194 -131 -293 -124 -281 -208 -427 -303 -528 -25
-27 -62 -74 -82 -105 -19 -32 -50 -68 -67 -82 -17 -13 -80 -72 -141 -131 -60
-58 -153 -138 -205 -177 -52 -39 -115 -90 -140 -113 -52 -47 -164 -104 -230
-115 -65 -12 -226 -7 -289 8 -75 18 -96 48 -96 137 0 65 1 68 37 100 21 18 58
60 84 94 25 34 62 80 83 102 20 22 57 68 81 103 25 35 73 93 106 130 52 56
126 152 194 248 8 12 35 50 60 85 24 35 63 110 86 165 23 56 71 144 106 197
61 90 106 182 159 322 12 33 40 90 61 126 30 52 45 97 74 222 33 148 58 230
118 390 23 60 58 224 71 332 18 142 28 196 60 320 26 102 63 287 70 355 3 25
7 54 9 66 2 12 7 45 11 75 4 30 9 57 12 62 2 4 4 57 4 118 -1 96 3 118 24 169
15 36 27 88 30 132 3 40 10 107 15 148 10 75 17 145 24 249 3 31 15 79 27 106
18 40 23 72 25 157 2 59 10 131 18 160 9 29 17 80 20 113 3 33 17 92 31 130
26 68 27 74 20 212 l-7 143 31 47 c17 25 31 52 31 59 0 7 13 11 32 10 29 -1
35 4 67 61 19 35 43 65 53 69 10 3 18 13 18 23 0 25 58 55 120 61 59 5 478 3
750 -4z m60 -2303 c23 -43 43 -90 45 -105 2 -16 17 -51 34 -78 17 -28 31 -51
31 -53 0 -1 -38 -2 -84 -1 -46 0 -103 -2 -127 -5 -57 -8 -129 2 -224 30 -68
20 -98 39 -61 39 8 0 46 23 83 52 37 28 104 79 148 112 44 33 84 66 88 73 15
24 25 14 67 -64z m598 -15 c24 -40 88 -201 97 -245 l7 -33 -214 0 c-267 0
-298 6 -218 43 23 11 68 51 107 95 105 117 126 138 158 155 40 22 41 22 63
-15z m562 -208 c15 -16 30 -39 33 -50 5 -19 1 -20 -121 -20 l-127 0 37 36 c77
72 132 83 178 34z m491 -19 c16 -16 29 -38 30 -48 3 -51 7 -71 22 -100 10 -18
17 -39 17 -48 0 -15 -4 -14 -32 3 -18 10 -49 25 -68 32 -19 7 -48 26 -65 41
-19 17 -50 31 -87 39 -32 6 -58 16 -58 21 0 5 16 16 36 24 21 8 48 26 62 40
37 37 103 35 143 -4z"/>
<path d="M3468 5424 c-73 -39 -78 -165 -10 -227 14 -13 32 -17 59 -15 32 2 41
8 55 37 9 19 22 39 27 44 17 17 13 57 -9 106 -32 70 -66 86 -122 55z"/>
<path d="M4858 5387 c-46 -27 -53 -44 -34 -89 12 -29 23 -37 57 -46 66 -17
109 9 109 65 0 87 -54 116 -132 70z"/>
</g>
</svg>
