<?xml version="1.0" standalone="no"?>
<!DOCTYPE svg PUBLIC "-//W3C//DTD SVG 20010904//EN"
 "http://www.w3.org/TR/2001/REC-SVG-20010904/DTD/svg10.dtd">
<svg version="1.0" xmlns="http://www.w3.org/2000/svg"
 width="686.000000pt" height="686.000000pt" viewBox="0 0 686.000000 686.000000"
 preserveAspectRatio="xMidYMid meet">
<metadata>
Created by potrace 1.14, written by Peter Selinger 2001-2017
</metadata>
<g transform="translate(0.000000,686.000000) scale(0.100000,-0.100000)"
fill="#000000" stroke="none">
<path d="M5222 6702 c-21 -20 -118 -171 -217 -334 l-180 -298 -285 -1 c-389
-1 -635 -7 -988 -24 l-72 -3 -190 276 c-104 153 -195 285 -202 294 -18 26 -71
48 -112 48 -46 0 -98 -50 -141 -136 -28 -55 -63 -122 -180 -339 -26 -49 -73
-137 -103 -195 -52 -101 -57 -106 -116 -138 -186 -103 -294 -244 -411 -537
-23 -58 -63 -219 -75 -305 -6 -41 -13 -88 -15 -105 -11 -70 -18 -285 -17 -480
2 -519 1 -726 -3 -805 -5 -100 -14 -225 -20 -260 -2 -14 -6 -52 -10 -85 -4
-33 -12 -89 -20 -125 -7 -36 -16 -81 -19 -100 -12 -75 -94 -360 -174 -605 -20
-60 -37 -112 -37 -115 -1 -3 -4 -12 -8 -20 -3 -8 -17 -48 -31 -88 -66 -188
-196 -470 -284 -617 -96 -161 -128 -211 -139 -223 -7 -7 -13 -17 -13 -22 0 -5
-6 -15 -12 -22 -7 -7 -26 -33 -43 -58 -16 -25 -33 -47 -36 -50 -3 -3 -10 -12
-15 -21 -5 -9 -29 -40 -54 -70 -52 -61 -56 -65 -171 -190 -75 -81 -121 -135
-152 -174 -4 -5 -16 -20 -26 -33 -180 -218 -191 -451 -30 -623 81 -87 174
-121 291 -107 75 9 181 40 204 59 8 6 14 9 14 5 0 -11 142 64 220 117 120 80
233 179 405 351 317 319 466 542 673 1006 44 99 153 406 212 595 99 318 126
362 209 344 20 -4 88 -22 151 -39 235 -63 733 -170 865 -185 28 -3 59 -8 70
-10 119 -24 678 -24 802 -1 10 2 40 7 67 10 134 18 297 66 401 118 205 102
278 229 277 483 -2 247 -62 383 -201 455 -21 10 -41 25 -44 32 -2 8 -48 80
-101 161 -64 97 -106 152 -126 162 -41 21 -96 19 -130 -5 -24 -17 -79 -102
-137 -209 -39 -72 -57 -101 -64 -101 -3 0 -41 59 -84 132 -43 73 -83 137 -89
143 -39 39 -103 47 -156 20 -24 -13 -100 -111 -100 -131 0 -3 -11 -20 -25 -38
-14 -18 -25 -38 -25 -44 0 -7 -4 -12 -10 -12 -5 0 -10 -5 -10 -11 0 -6 -14
-31 -31 -56 l-31 -45 -38 98 c-72 191 -77 198 -137 219 -53 18 -101 4 -143
-43 -42 -46 -158 -177 -183 -205 -9 -11 -19 -18 -21 -16 -3 4 -11 56 -22 159
-14 129 -25 152 -88 184 -55 27 -87 16 -234 -83 l-132 -89 -35 48 c-46 62 -91
160 -108 235 -29 127 -2 311 59 400 48 71 59 84 69 85 6 0 53 -43 105 -95 117
-119 160 -134 237 -82 34 23 47 52 98 219 15 48 31 86 35 83 5 -3 28 -31 52
-63 140 -186 166 -209 231 -204 67 5 86 26 151 165 34 73 66 142 71 154 9 21
19 11 105 -112 104 -148 133 -171 201 -162 20 3 49 13 62 23 14 11 58 83 98
161 40 79 73 142 74 140 1 -1 48 -71 105 -156 114 -169 137 -188 210 -176 45
8 82 42 119 110 14 28 48 89 75 138 l48 87 17 -22 c10 -13 57 -83 106 -156 48
-73 99 -141 113 -150 36 -23 111 -21 144 4 24 18 68 90 156 254 96 178 110
198 159 220 185 82 410 363 458 573 21 91 28 152 28 237 1 116 -10 168 -53
257 -78 158 -208 238 -426 259 l-70 6 -30 47 c-16 25 -32 53 -36 61 -4 8 -48
80 -97 160 -49 80 -125 204 -168 276 -43 72 -89 139 -102 149 -13 10 -45 19
-73 21 -44 2 -52 -1 -86 -34z m120 -99 c14 -21 65 -103 113 -183 48 -80 119
-196 156 -258 38 -61 69 -115 69 -118 0 -3 -53 -3 -117 1 -239 13 -410 20
-595 24 l-26 1 59 98 c32 53 63 104 69 112 5 8 46 76 91 150 103 172 129 210
144 210 7 0 24 -17 37 -37z m-2337 -51 c6 -4 30 -36 54 -72 69 -102 189 -278
248 -362 30 -43 53 -78 51 -79 -23 -5 -57 -9 -132 -13 -244 -15 -266 -17 -503
-62 -12 -2 -34 -9 -49 -14 -15 -6 -28 -9 -30 -7 -2 1 32 68 74 147 87 162 191
357 203 380 42 83 60 100 84 82z m1539 -1933 c3 -2 -30 -72 -72 -154 -60 -117
-81 -150 -97 -150 -14 0 -49 42 -122 144 -56 80 -101 146 -99 148 2 2 59 6
127 10 68 3 125 6 126 7 5 4 133 0 137 -5z m536 -2 c8 -1 16 -7 17 -12 2 -13
-145 -281 -162 -295 -7 -6 -19 -8 -26 -5 -12 5 -172 238 -206 300 l-12 22 187
-3 c103 -3 194 -6 202 -7z m564 -74 c-99 -182 -140 -248 -155 -251 -10 -2 -34
24 -67 74 -29 42 -52 80 -52 84 0 5 -3 10 -7 12 -5 2 -21 23 -37 48 -16 25
-38 57 -48 73 l-19 27 143 0 c138 1 248 8 257 16 2 2 11 4 18 4 10 0 -1 -28
-33 -87z m-1643 0 c-15 -32 -49 -106 -76 -165 -58 -128 -71 -134 -125 -60 -19
26 -37 49 -40 52 -17 17 -132 172 -129 174 7 5 209 37 273 43 34 3 62 6 63 7
1 1 15 3 32 4 l29 2 -27 -57z m-513 -45 c-3 -7 -24 -72 -47 -145 -23 -72 -49
-137 -57 -144 -11 -9 -31 5 -104 77 -50 48 -90 91 -90 95 0 11 162 89 227 109
72 23 76 23 71 8z m-31 -880 c9 -15 8 -14 17 -94 4 -32 9 -72 11 -89 2 -16 7
-56 10 -87 l6 -57 -33 12 c-93 33 -285 155 -267 171 24 21 227 155 236 156 6
0 15 -6 20 -12z m1579 -135 c38 -60 69 -112 69 -117 0 -5 -27 -11 -60 -12 -33
-2 -106 -12 -162 -22 -57 -10 -103 -16 -103 -14 0 3 34 65 76 139 53 94 81
133 94 133 12 0 41 -36 86 -107z m-520 -51 c45 -75 78 -140 75 -144 -3 -4 -28
-9 -56 -12 -27 -4 -59 -8 -70 -10 -11 -2 -67 -7 -125 -11 -58 -4 -107 -9 -110
-10 -3 -2 -11 0 -17 3 -8 5 6 36 43 96 30 48 54 92 54 97 0 5 3 9 8 9 4 0 23
27 41 60 52 90 60 86 157 -78z m-562 35 c16 -40 41 -107 57 -150 l29 -78 -168
5 c-142 5 -220 11 -228 19 -2 1 16 23 39 48 23 25 67 74 97 109 88 102 118
130 133 125 7 -3 26 -38 41 -78z"/>
</g>
</svg>
